  0
SECTION
  2
HEADER
  9
$ACADVER
  1
AC1015
  9
$ACADMAINTVER
 70
     6
  9
$DWGCODEPAGE
  3
ANSI_1252
  9
$INSBASE
 10
0.0
 20
0.0
 30
0.0
  9
$EXTMIN
 10
-12.7573295454
 20
-12.8
 30
0.0
  9
$EXTMAX
 10
12.7573295454
 20
12.8
 30
0.0
  9
$LIMMIN
 10
0.0
 20
0.0
  9
$LIMMAX
 10
420.0
 20
297.0
  9
$ORTHOMODE
 70
     0
  9
$REGENMODE
 70
     1
  9
$FILLMODE
 70
     1
  9
$QTEXTMODE
 70
     0
  9
$MIRRTEXT
 70
     1
  9
$LTSCALE
 40
1.0
  9
$ATTMODE
 70
     1
  9
$TEXTSIZE
 40
3.5
  9
$TRACEWID
 40
1.0
  9
$TEXTSTYLE
  7
Standard
  9
$CLAYER
  8
0
  9
$CELTYPE
  6
ByLayer
  9
$CECOLOR
 62
   256
  9
$CELTSCALE
 40
1.0
  9
$DISPSILH
 70
     0
  9
$DIMSCALE
 40
1.0
  9
$DIMASZ
 40
3.302
  9
$DIMEXO
 40
0.0
  9
$DIMDLI
 40
3.75
  9
$DIMRND
 40
0.0
  9
$DIMDLE
 40
0.0
  9
$DIMEXE
 40
1.0
  9
$DIMTP
 40
0.0
  9
$DIMTM
 40
0.0
  9
$DIMTXT
 40
3.5
  9
$DIMCEN
 40
2.5
  9
$DIMTSZ
 40
0.0
  9
$DIMTOL
 70
     0
  9
$DIMLIM
 70
     0
  9
$DIMTIH
 70
     1
  9
$DIMTOH
 70
     1
  9
$DIMSE1
 70
     0
  9
$DIMSE2
 70
     0
  9
$DIMTAD
 70
     1
  9
$DIMZIN
 70
     1
  9
$DIMBLK
  1

  9
$DIMASO
 70
     1
  9
$DIMSHO
 70
     1
  9
$DIMPOST
  1

  9
$DIMAPOST
  1

  9
$DIMALT
 70
     0
  9
$DIMALTD
 70
     3
  9
$DIMALTF
 40
0.0393700787
  9
$DIMLFAC
 40
1.0
  9
$DIMTOFL
 70
     1
  9
$DIMTVP
 40
0.0
  9
$DIMTIX
 70
     0
  9
$DIMSOXD
 70
     0
  9
$DIMSAH
 70
     0
  9
$DIMBLK1
  1

  9
$DIMBLK2
  1

  9
$DIMSTYLE
  2
ISO-25
  9
$DIMCLRD
 70
     0
  9
$DIMCLRE
 70
     0
  9
$DIMCLRT
 70
     0
  9
$DIMTFAC
 40
1.0
  9
$DIMGAP
 40
1.524
  9
$DIMJUST
 70
     0
  9
$DIMSD1
 70
     0
  9
$DIMSD2
 70
     0
  9
$DIMTOLJ
 70
     0
  9
$DIMTZIN
 70
     1
  9
$DIMALTZ
 70
     0
  9
$DIMALTTZ
 70
     0
  9
$DIMUPT
 70
     0
  9
$DIMDEC
 70
     2
  9
$DIMTDEC
 70
     2
  9
$DIMALTU
 70
     2
  9
$DIMALTTD
 70
     3
  9
$DIMTXSTY
  7
Standard
  9
$DIMAUNIT
 70
     0
  9
$DIMADEC
 70
     2
  9
$DIMALTRND
 40
0.0
  9
$DIMAZIN
 70
     0
  9
$DIMDSEP
 70
    44
  9
$DIMATFIT
 70
     3
  9
$DIMFRAC
 70
     0
  9
$DIMLDRBLK
  1

  9
$DIMLUNIT
 70
     2
  9
$DIMLWD
 70
    -2
  9
$DIMLWE
 70
    -2
  9
$DIMTMOVE
 70
     0
  9
$LUNITS
 70
     2
  9
$LUPREC
 70
     2
  9
$SKETCHINC
 40
1.0
  9
$FILLETRAD
 40
0.0
  9
$AUNITS
 70
     0
  9
$AUPREC
 70
     2
  9
$MENU
  1
.
  9
$ELEVATION
 40
0.0
  9
$PELEVATION
 40
0.0
  9
$THICKNESS
 40
0.0
  9
$LIMCHECK
 70
     0
  9
$CHAMFERA
 40
0.0
  9
$CHAMFERB
 40
0.0
  9
$CHAMFERC
 40
0.0
  9
$CHAMFERD
 40
0.0
  9
$SKPOLY
 70
     0
  9
$TDCREATE
 40
2460233.958171516
  9
$TDUCREATE
 40
2460234.16650485
  9
$TDUPDATE
 40
2460233.958233831
  9
$TDUUPDATE
 40
2460234.166567164
  9
$TDINDWG
 40
0.0000000116
  9
$TDUSRTIMER
 40
0.0000000116
  9
$USRTIMER
 70
     1
  9
$ANGBASE
 50
0.0
  9
$ANGDIR
 70
     0
  9
$PDMODE
 70
     0
  9
$PDSIZE
 40
-1.0
  9
$PLINEWID
 40
0.0
  9
$SPLFRAME
 70
     0
  9
$SPLINETYPE
 70
     6
  9
$SPLINESEGS
 70
     8
  9
$HANDSEED
  5
1DA
  9
$SURFTAB1
 70
     6
  9
$SURFTAB2
 70
     6
  9
$SURFTYPE
 70
     6
  9
$SURFU
 70
     6
  9
$SURFV
 70
     6
  9
$UCSBASE
  2

  9
$UCSNAME
  2

  9
$UCSORG
 10
0.0
 20
0.0
 30
0.0
  9
$UCSXDIR
 10
1.0
 20
0.0
 30
0.0
  9
$UCSYDIR
 10
0.0
 20
1.0
 30
0.0
  9
$UCSORTHOREF
  2

  9
$UCSORTHOVIEW
 70
     0
  9
$UCSORGTOP
 10
0.0
 20
0.0
 30
0.0
  9
$UCSORGBOTTOM
 10
0.0
 20
0.0
 30
0.0
  9
$UCSORGLEFT
 10
0.0
 20
0.0
 30
0.0
  9
$UCSORGRIGHT
 10
0.0
 20
0.0
 30
0.0
  9
$UCSORGFRONT
 10
0.0
 20
0.0
 30
0.0
  9
$UCSORGBACK
 10
0.0
 20
0.0
 30
0.0
  9
$PUCSBASE
  2

  9
$PUCSNAME
  2

  9
$PUCSORG
 10
0.0
 20
0.0
 30
0.0
  9
$PUCSXDIR
 10
1.0
 20
0.0
 30
0.0
  9
$PUCSYDIR
 10
0.0
 20
1.0
 30
0.0
  9
$PUCSORTHOREF
  2

  9
$PUCSORTHOVIEW
 70
     0
  9
$PUCSORGTOP
 10
0.0
 20
0.0
 30
0.0
  9
$PUCSORGBOTTOM
 10
0.0
 20
0.0
 30
0.0
  9
$PUCSORGLEFT
 10
0.0
 20
0.0
 30
0.0
  9
$PUCSORGRIGHT
 10
0.0
 20
0.0
 30
0.0
  9
$PUCSORGFRONT
 10
0.0
 20
0.0
 30
0.0
  9
$PUCSORGBACK
 10
0.0
 20
0.0
 30
0.0
  9
$USERI1
 70
     0
  9
$USERI2
 70
     0
  9
$USERI3
 70
     0
  9
$USERI4
 70
     0
  9
$USERI5
 70
     0
  9
$USERR1
 40
0.0
  9
$USERR2
 40
0.0
  9
$USERR3
 40
0.0
  9
$USERR4
 40
0.0
  9
$USERR5
 40
0.0
  9
$WORLDVIEW
 70
     1
  9
$SHADEDGE
 70
     3
  9
$SHADEDIF
 70
    70
  9
$TILEMODE
 70
     1
  9
$MAXACTVP
 70
    64
  9
$PINSBASE
 10
0.0
 20
0.0
 30
0.0
  9
$PLIMCHECK
 70
     0
  9
$PEXTMIN
 10
1.0000000000E+20
 20
1.0000000000E+20
 30
1.0000000000E+20
  9
$PEXTMAX
 10
-1.0000000000E+20
 20
-1.0000000000E+20
 30
-1.0000000000E+20
  9
$PLIMMIN
 10
0.0
 20
0.0
  9
$PLIMMAX
 10
420.0
 20
297.0
  9
$UNITMODE
 70
     0
  9
$VISRETAIN
 70
     1
  9
$PLINEGEN
 70
     0
  9
$PSLTSCALE
 70
     1
  9
$TREEDEPTH
 70
  3020
  9
$CMLSTYLE
  2
Standard
  9
$CMLJUST
 70
     0
  9
$CMLSCALE
 40
20.0
  9
$PROXYGRAPHICS
 70
     1
  9
$MEASUREMENT
 70
     1
  9
$CELWEIGHT
370
    -1
  9
$ENDCAPS
280
     0
  9
$JOINSTYLE
280
     0
  9
$LWDISPLAY
290
     1
  9
$INSUNITS
 70
     4
  9
$HYPERLINKBASE
  1

  9
$STYLESHEET
  1

  9
$XEDIT
290
     1
  9
$CEPSNTYPE
380
     0
  9
$PSTYLEMODE
290
     1
  9
$FINGERPRINTGUID
  2
{936e0259-6c54-4c27-a513-eaa09aaabd5e}
  9
$VERSIONGUID
  2
{FAEB1C32-E019-11D5-929B-00C0DF256EC4}
  9
$EXTNAMES
290
     1
  9
$PSVPSCALE
 40
0.0
  9
$OLESTARTUP
290
     0
  0
ENDSEC
  0
SECTION
  2
CLASSES
  0
CLASS
  1
ACDBDICTIONARYWDFLT
  2
AcDbDictionaryWithDefault
  3
ObjectDBX Classes
 90
        0
280
     0
281
     0
  0
CLASS
  1
VISUALSTYLE
  2
AcDbVisualStyle
  3
ObjectDBX Classes
 90
     4095
280
     0
281
     0
  0
CLASS
  1
MATERIAL
  2
AcDbMaterial
  3
ObjectDBX Classes
 90
     1153
280
     0
281
     0
  0
CLASS
  1
SCALE
  2
AcDbScale
  3
ObjectDBX Classes
 90
     1153
280
     0
281
     0
  0
CLASS
  1
TABLESTYLE
  2
AcDbTableStyle
  3
ObjectDBX Classes
 90
     4095
280
     0
281
     0
  0
CLASS
  1
MLEADERSTYLE
  2
AcDbMLeaderStyle
  3
ACDB_MLEADERSTYLE_CLASS
 90
     4095
280
     0
281
     0
  0
CLASS
  1
SUN
  2
AcDbSun
  3
SCENEOE
 90
     1153
280
     0
281
     0
  0
CLASS
  1
ACDBPLACEHOLDER
  2
AcDbPlaceHolder
  3
ObjectDBX Classes
 90
        0
280
     0
281
     0
  0
CLASS
  1
LAYOUT
  2
AcDbLayout
  3
ObjectDBX Classes
 90
        0
280
     0
281
     0
  0
ENDSEC
  0
SECTION
  2
TABLES
  0
TABLE
  2
VPORT
  5
8
330
0
100
AcDbSymbolTable
 70
     1
  0
VPORT
  5
29
330
8
100
AcDbSymbolTableRecord
100
AcDbViewportTableRecord
  2
*Active
 70
     0
 10
0.0
 20
0.0
 11
1.0
 21
1.0
 12
0.0
 22
0.0
 13
0.0
 23
0.0
 14
10.0
 24
10.0
 15
10.0
 25
10.0
 16
0.0
 26
0.0
 36
1.0
 17
0.0
 27
0.0
 37
0.0
 40
26.112
 41
0.9966663707
 42
50.0
 43
0.0
 44
0.0
 50
0.0
 51
0.0
 71
     0
 72
   100
 73
     1
 74
     3
 75
     0
 76
     0
 77
     0
 78
     0
281
     0
 65
     1
110
0.0
120
0.0
130
0.0
111
1.0
121
0.0
131
0.0
112
0.0
122
1.0
132
0.0
 79
     0
146
0.0
  0
ENDTAB
  0
TABLE
  2
LTYPE
  5
5
330
0
100
AcDbSymbolTable
 70
     6
  0
LTYPE
  5
14
330
5
100
AcDbSymbolTableRecord
100
AcDbLinetypeTableRecord
  2
ByBlock
 70
     0
  3

 72
    65
 73
     0
 40
0.0
  0
LTYPE
  5
15
330
5
100
AcDbSymbolTableRecord
100
AcDbLinetypeTableRecord
  2
ByLayer
 70
     0
  3

 72
    65
 73
     0
 40
0.0
  0
LTYPE
  5
16
330
5
100
AcDbSymbolTableRecord
100
AcDbLinetypeTableRecord
  2
Continuous
 70
     0
  3
Solid line
 72
    65
 73
     0
 40
0.0
  0
LTYPE
  5
5E
330
5
100
AcDbSymbolTableRecord
100
AcDbLinetypeTableRecord
  2
HIDDEN
 70
     0
  3
Hidden __ __ __ __ __ __ __ __ __ __ __ __ __ __
 72
    65
 73
     2
 40
1.905
 49
1.27
 74
     0
 49
-0.635
 74
     0
  0
LTYPE
  5
5F
330
5
100
AcDbSymbolTableRecord
100
AcDbLinetypeTableRecord
  2
PHANTOM
 70
     0
  3
Phantom ______  __  __  ______  __  __  ______
 72
    65
 73
     6
 40
12.7
 49
6.35
 74
     0
 49
-1.27
 74
     0
 49
1.27
 74
     0
 49
-1.27
 74
     0
 49
1.27
 74
     0
 49
-1.27
 74
     0
  0
LTYPE
  5
60
330
5
100
AcDbSymbolTableRecord
100
AcDbLinetypeTableRecord
  2
CENTER
 70
     0
  3
Center ____ _ ____ _ ____ _ ____ _ ____ _ ____
 72
    65
 73
     4
 40
10.16
 49
6.35
 74
     0
 49
-1.27
 74
     0
 49
1.27
 74
     0
 49
-1.27
 74
     0
  0
LTYPE
  5
61
330
5
100
AcDbSymbolTableRecord
100
AcDbLinetypeTableRecord
  2
CENTERX2
 70
     0
  3
Center (2x) ________  __  ________  __  _____
 72
    65
 73
     4
 40
20.32
 49
12.7
 74
     0
 49
-2.54
 74
     0
 49
2.54
 74
     0
 49
-2.54
 74
     0
  0
LTYPE
  5
62
330
5
100
AcDbSymbolTableRecord
100
AcDbLinetypeTableRecord
  2
DOT2
 70
     0
  3
Dot (.5x) ........................................
 72
    65
 73
     2
 40
0.635
 49
0.0
 74
     0
 49
-0.635
 74
     0
  0
ENDTAB
  0
TABLE
  2
LAYER
  5
2
330
0
100
AcDbSymbolTable
 70
     1
  0
LAYER
  5
10
330
2
100
AcDbSymbolTableRecord
100
AcDbLayerTableRecord
  2
0
 70
     0
 62
     7
  6
Continuous
370
    -3
390
F
  0
ENDTAB
  0
TABLE
  2
STYLE
  5
3
330
0
100
AcDbSymbolTable
 70
     2
  0
STYLE
  5
11
330
3
100
AcDbSymbolTableRecord
100
AcDbTextStyleTableRecord
  2
Standard
 70
     0
 40
0.0
 41
1.0
 50
0.0
 71
     0
 42
3.5
  3
txt
  4

  0
STYLE
  5
1D6
330
3
100
AcDbSymbolTableRecord
100
AcDbTextStyleTableRecord
  2
SLDTEXTSTYLE0
 70
     0
 40
0.0
 41
0.7
 50
0.0
 71
     0
 42
3.5
  3
TXT
  4

  0
ENDTAB
  0
TABLE
  2
VIEW
  5
6
330
0
100
AcDbSymbolTable
 70
     0
  0
ENDTAB
  0
TABLE
  2
UCS
  5
7
330
0
100
AcDbSymbolTable
 70
     0
  0
ENDTAB
  0
TABLE
  2
APPID
  5
9
330
0
100
AcDbSymbolTable
 70
     1
  0
APPID
  5
12
330
9
100
AcDbSymbolTableRecord
100
AcDbRegAppTableRecord
  2
ACAD
 70
     0
  0
ENDTAB
  0
TABLE
  2
DIMSTYLE
  5
A
330
0
100
AcDbSymbolTable
 70
     1
100
AcDbDimStyleTable
  0
DIMSTYLE
105
27
330
A
100
AcDbSymbolTableRecord
100
AcDbDimStyleTableRecord
  2
ISO-25
 70
     0
 41
2.5
 42
0.625
 43
3.75
 44
1.25
 73
     0
 74
     0
 77
     1
 78
     8
140
2.5
141
2.5
143
0.0393700787
147
0.625
171
     3
172
     1
178
     0
271
     2
272
     2
274
     3
278
    44
283
     0
284
     8
340
11
  0
ENDTAB
  0
TABLE
  2
BLOCK_RECORD
  5
1
330
0
100
AcDbSymbolTable
 70
     1
  0
BLOCK_RECORD
  5
1F
330
1
100
AcDbSymbolTableRecord
100
AcDbBlockTableRecord
  2
*Model_Space
340
22
  0
BLOCK_RECORD
  5
1B
330
1
100
AcDbSymbolTableRecord
100
AcDbBlockTableRecord
  2
*Paper_Space
340
1E
  0
BLOCK_RECORD
  5
23
330
1
100
AcDbSymbolTableRecord
100
AcDbBlockTableRecord
  2
*Paper_Space0
340
26
  0
ENDTAB
  0
ENDSEC
  0
SECTION
  2
BLOCKS
  0
BLOCK
  5
20
330
1F
100
AcDbEntity
  8
0
100
AcDbBlockBegin
  2
*Model_Space
 70
     0
 10
0.0
 20
0.0
 30
0.0
  3
*Model_Space
  1

  0
ENDBLK
  5
21
330
1F
100
AcDbEntity
  8
0
100
AcDbBlockEnd
  0
BLOCK
  5
1C
330
1B
100
AcDbEntity
 67
     1
  8
0
100
AcDbBlockBegin
  2
*Paper_Space
 70
     0
 10
0.0
 20
0.0
 30
0.0
  3
*Paper_Space
  1

  0
ENDBLK
  5
1D
330
1B
100
AcDbEntity
 67
     1
  8
0
100
AcDbBlockEnd
  0
BLOCK
  5
24
330
23
100
AcDbEntity
  8
0
100
AcDbBlockBegin
  2
*Paper_Space0
 70
     0
 10
0.0
 20
0.0
 30
0.0
  3
*Paper_Space0
  1

  0
ENDBLK
  5
25
330
23
100
AcDbEntity
  8
0
100
AcDbBlockEnd
  0
ENDSEC
  0
SECTION
  2
ENTITIES
  0
SPLINE
  5
6C
330
1F
100
AcDbEntity
  8
0
  6
Continuous
 62
     7
370
    25
100
AcDbSpline
210
0.0
220
0.0
230
1.0
 70
     8
 71
     3
 72
    10
 73
     6
 74
     0
 42
0.00000001
 43
0.00000001
 40
0.0
 40
0.0
 40
0.0
 40
0.0
 40
0.5
 40
0.5
 40
1.0
 40
1.0
 40
1.0
 40
1.0
 10
-0.755452203244503
 20
11.3656713967751
 30
0.0
 10
-0.7646777464810866
 20
11.2672628663378
 30
0.0
 10
-0.794096563100302
 20
11.1687103753549
 30
0.0
 10
-0.9123565014092639
 20
11.01011304441626
 30
0.0
 10
-1.003913004983136
 20
10.95408595978458
 30
0.0
 10
-1.102866423976544
 20
10.9445733425687
 30
0.0
  0
SPLINE
  5
6E
330
1F
100
AcDbEntity
  8
0
  6
Continuous
 62
     7
370
    25
100
AcDbSpline
210
0.0
220
0.0
230
1.0
 70
     8
 71
     3
 72
    10
 73
     6
 74
     0
 42
0.00000001
 43
0.00000001
 40
0.0
 40
0.0
 40
0.0
 40
0.0
 40
0.5
 40
0.5
 40
1.0
 40
1.0
 40
1.0
 40
1.0
 10
-0.2949341794772645
 20
12.79660165160172
 30
0.0
 10
-0.4072491642739314
 20
12.57540954748106
 30
0.0
 10
-0.5063499197532698
 20
12.34729173748928
 30
0.0
 10
-0.6663428293254993
 20
11.87764521349363
 30
0.0
 10
-0.7303728877786074
 20
11.63590507133858
 30
0.0
 10
-0.7527986065535061
 20
11.38879651034902
 30
0.0
  0
SPLINE
  5
6F
330
1F
100
AcDbEntity
  8
0
  6
Continuous
 62
     7
370
    25
100
AcDbSpline
210
0.0
220
0.0
230
1.0
 70
     8
 71
     3
 72
    10
 73
     6
 74
     0
 42
0.00000001
 43
0.00000001
 40
0.0
 40
0.0
 40
0.0
 40
0.0
 40
0.5
 40
0.5
 40
1.0
 40
1.0
 40
1.0
 40
1.0
 10
0.7527986065535031
 20
11.38879651034902
 30
0.0
 10
0.7303728877786047
 20
11.63590507133858
 30
0.0
 10
0.6663428293254967
 20
11.87764521349362
 30
0.0
 10
0.5063499197532667
 20
12.34729173748928
 30
0.0
 10
0.4072491642739767
 20
12.575409547481
 30
0.0
 10
0.2949341794772619
 20
12.79660165160172
 30
0.0
  0
SPLINE
  5
71
330
1F
100
AcDbEntity
  8
0
  6
Continuous
 62
     7
370
    25
100
AcDbSpline
210
0.0
220
0.0
230
1.0
 70
     8
 71
     3
 72
    10
 73
     6
 74
     0
 42
0.00000001
 43
0.00000001
 40
0.0
 40
0.0
 40
0.0
 40
0.0
 40
0.5
 40
0.5
 40
1.0
 40
1.0
 40
1.0
 40
1.0
 10
1.102866423976542
 20
10.9445733425687
 30
0.0
 10
1.003913004983134
 20
10.95408595978457
 30
0.0
 10
0.9123565014092625
 20
11.01011304441626
 30
0.0
 10
0.7940965631002985
 20
11.1687103753549
 30
0.0
 10
0.7646777464810802
 20
11.2672628663378
 30
0.0
 10
0.7554522032445011
 20
11.3656713967751
 30
0.0
  0
SPLINE
  5
74
330
1F
100
AcDbEntity
  8
0
  6
Continuous
 62
     7
370
    25
100
AcDbSpline
210
0.0
220
0.0
230
1.0
 70
     8
 71
     3
 72
    10
 73
     6
 74
     0
 42
0.00000001
 43
0.00000001
 40
0.0
 40
0.0
 40
0.0
 40
0.0
 40
0.5
 40
0.5
 40
1.0
 40
1.0
 40
1.0
 40
1.0
 10
3.932695101486841
 20
10.6903275707342
 30
0.0
 10
3.884240793048695
 20
10.60417927124652
 30
0.0
 10
3.817280457407844
 20
10.52611280148473
 30
0.0
 10
3.644737281957825
 20
10.42932758052958
 30
0.0
 10
3.538307985675876
 20
10.41538367677481
 30
0.0
 10
3.444040409242975
 20
10.44694144998914
 30
0.0
  0
SPLINE
  5
76
330
1F
100
AcDbEntity
  8
0
  6
Continuous
 62
     7
370
    25
100
AcDbSpline
210
0.0
220
0.0
230
1.0
 70
     8
 71
     3
 72
    10
 73
     6
 74
     0
 42
0.00000001
 43
0.00000001
 40
0.0
 40
0.0
 40
0.0
 40
0.0
 40
0.5
 40
0.5
 40
1.0
 40
1.0
 40
1.0
 40
1.0
 10
4.935411018585739
 20
11.81023785017146
 30
0.0
 10
4.742839240494724
 20
11.65385142806844
 30
0.0
 10
4.559522323215674
 20
11.48576334755349
 30
0.0
 10
4.222339076818731
 20
11.12179487781496
 30
0.0
 10
4.065520133849486
 20
10.92699764005045
 30
0.0
 10
3.944525113756125
 20
10.71037409818696
 30
0.0
  0
SPLINE
  5
77
330
1F
100
AcDbEntity
  8
0
  6
Continuous
 62
     7
370
    25
100
AcDbSpline
210
0.0
220
0.0
230
1.0
 70
     8
 71
     3
 72
    10
 73
     6
 74
     0
 42
0.00000001
 43
0.00000001
 40
0.0
 40
0.0
 40
0.0
 40
0.0
 40
0.5
 40
0.5
 40
1.0
 40
1.0
 40
1.0
 40
1.0
 10
5.31995660882939
 20
10.09799254190354
 30
0.0
 10
5.399977801880413
 20
10.33285880691319
 30
0.0
 10
5.439808006744774
 20
10.57974278673998
 30
0.0
 10
5.484669661552259
 20
11.07386121438921
 30
0.0
 10
5.486920488797159
 20
11.32256511212423
 30
0.0
 10
5.47428257851574
 20
11.57031677399366
 30
0.0
  0
SPLINE
  5
79
330
1F
100
AcDbEntity
  8
0
  6
Continuous
 62
     7
370
    25
100
AcDbSpline
210
0.0
220
0.0
230
1.0
 70
     8
 71
     3
 72
    10
 73
     6
 74
     0
 42
0.00000001
 43
0.00000001
 40
0.0
 40
0.0
 40
0.0
 40
0.0
 40
0.5
 40
0.5
 40
1.0
 40
1.0
 40
1.0
 40
1.0
 10
5.4590776332636
 20
9.549789075890692
 30
0.0
 10
5.37254831681723
 20
9.59872726560083
 30
0.0
 10
5.311695557184074
 20
9.68714993918642
 30
0.0
 10
5.268167073707609
 20
9.88013646077782
 30
0.0
 10
5.281376556765042
 20
9.982134351969549
 30
0.0
 10
5.31297495896706
 20
10.07578738443042
 30
0.0
  0
SPLINE
  5
7C
330
1F
100
AcDbEntity
  8
0
  6
Continuous
 62
     7
370
    25
100
AcDbSpline
210
0.0
220
0.0
230
1.0
 70
     8
 71
     3
 72
    10
 73
     6
 74
     0
 42
0.00000001
 43
0.00000001
 40
0.0
 40
0.0
 40
0.0
 40
0.0
 40
0.5
 40
0.5
 40
1.0
 40
1.0
 40
1.0
 40
1.0
 10
7.94084369575772
 20
8.16652898913629
 30
0.0
 10
7.861538812240564
 20
8.107536744212382
 30
0.0
 10
7.768615007925921
 20
8.063454697505064
 30
0.0
 10
7.571622877875678
 20
8.045216630502761
 30
0.0
 10
7.468723381092607
 20
8.075766935260381
 30
0.0
 10
7.39544136757951
 20
8.142938473222898
 30
0.0
  0
SPLINE
  5
7E
330
1F
100
AcDbEntity
  8
0
  6
Continuous
 62
     7
370
    25
100
AcDbSpline
210
0.0
220
0.0
230
1.0
 70
     8
 71
     3
 72
    10
 73
     6
 74
     0
 42
0.00000001
 43
0.00000001
 40
0.0
 40
0.0
 40
0.0
 40
0.0
 40
0.5
 40
0.5
 40
1.0
 40
1.0
 40
1.0
 40
1.0
 10
9.31237881473374
 20
8.78177663180397
 30
0.0
 10
9.072847653240064
 20
8.717236524827094
 30
0.0
 10
8.837011734540695
 20
8.638242129941451
 30
0.0
 10
8.38094019783469
 20
8.442885169427566
 30
0.0
 10
8.158447790244066
 20
8.32871304814053
 30
0.0
 10
7.95980460701165
 20
8.18003070375431
 30
0.0
  0
SPLINE
  5
7F
330
1F
100
AcDbEntity
  8
0
  6
Continuous
 62
     7
370
    25
100
AcDbSpline
210
0.0
220
0.0
230
1.0
 70
     8
 71
     3
 72
    10
 73
     6
 74
     0
 42
0.00000001
 43
0.00000001
 40
0.0
 40
0.0
 40
0.0
 40
0.0
 40
0.5
 40
0.5
 40
1.0
 40
1.0
 40
1.0
 40
1.0
 10
8.96724578315014
 20
7.06115392558065
 30
0.0
 10
9.135877496778805
 20
7.243167383697211
 30
0.0
 10
9.272680960693581
 20
7.45250671821315
 30
0.0
 10
9.51464019220922
 20
7.885659484450377
 30
0.0
 10
9.617853413699068
 20
8.11194630660679
 30
0.0
 10
9.707077787432889
 20
8.343419013134069
 30
0.0
  0
SPLINE
  5
81
330
1F
100
AcDbEntity
  8
0
  6
Continuous
 62
     7
370
    25
100
AcDbSpline
210
0.0
220
0.0
230
1.0
 70
     8
 71
     3
 72
    10
 73
     6
 74
     0
 42
0.00000001
 43
0.00000001
 40
0.0
 40
0.0
 40
0.0
 40
0.0
 40
0.5
 40
0.5
 40
1.0
 40
1.0
 40
1.0
 40
1.0
 10
8.87136472559601
 20
6.50375952088104
 30
0.0
 10
8.812221216604415
 20
6.583661425495032
 30
0.0
 10
8.792594195882527
 20
6.689190604476855
 30
0.0
 10
8.831323637475485
 20
6.883197193910312
 30
0.0
 10
8.884877380584557
 20
6.971004123302101
 30
0.0
 10
8.95183607742198
 20
7.043708197662991
 30
0.0
  0
SPLINE
  5
84
330
1F
100
AcDbEntity
  8
0
  6
Continuous
 62
     7
370
    25
100
AcDbSpline
210
0.0
220
0.0
230
1.0
 70
     8
 71
     3
 72
    10
 73
     6
 74
     0
 42
0.00000001
 43
0.00000001
 40
0.0
 40
0.0
 40
0.0
 40
0.0
 40
0.5
 40
0.5
 40
1.0
 40
1.0
 40
1.0
 40
1.0
 10
10.57594827473186
 20
4.23066335472994
 30
0.0
 10
10.47950535095796
 20
4.209027459444859
 30
0.0
 10
10.37668544792187
 20
4.206552022140565
 30
0.0
 10
10.18930609217443
 20
4.270014636563417
 30
0.0
 10
10.10772865269659
 20
4.339776724600084
 30
0.0
 10
10.06810332798592
 20
4.43094745816275
 30
0.0
  0
SPLINE
  5
86
330
1F
100
AcDbEntity
  8
0
  6
Continuous
 62
     7
370
    25
100
AcDbSpline
210
0.0
220
0.0
230
1.0
 70
     8
 71
     3
 72
    10
 73
     6
 74
     0
 42
0.00000001
 43
0.00000001
 40
0.0
 40
0.0
 40
0.0
 40
0.0
 40
0.5
 40
0.5
 40
1.0
 40
1.0
 40
1.0
 40
1.0
 10
12.07915171350866
 20
4.23486645386144
 30
0.0
 10
11.83407828250618
 20
4.273332232835032
 30
0.0
 10
11.58650153523234
 20
4.297090372096409
 30
0.0
 10
11.09040062019359
 20
4.304123914042316
 30
0.0
 10
10.8407057065341
 20
4.290318306224373
 30
0.0
 10
10.59876157116014
 20
4.23528568739654
 30
0.0
  0
SPLINE
  5
87
330
1F
100
AcDbEntity
  8
0
  6
Continuous
 62
     7
370
    25
100
AcDbSpline
210
0.0
220
0.0
230
1.0
 70
     8
 71
     3
 72
    10
 73
     6
 74
     0
 42
0.00000001
 43
0.00000001
 40
0.0
 40
0.0
 40
0.0
 40
0.0
 40
0.5
 40
0.5
 40
1.0
 40
1.0
 40
1.0
 40
1.0
 10
11.06401669669376
 20
2.803377646955295
 30
0.0
 10
11.29210097564266
 20
2.901066517730069
 30
0.0
 10
11.50222313687651
 20
3.036664534209184
 30
0.0
 10
11.89944299584065
 20
3.333955590682659
 30
0.0
 10
12.08577210791798
 20
3.498698289958045
 30
0.0
 10
12.26143106086966
 20
3.67386830732141
 30
0.0
  0
SPLINE
  5
89
330
1F
100
AcDbEntity
  8
0
  6
Continuous
 62
     7
370
    25
100
AcDbSpline
210
0.0
220
0.0
230
1.0
 70
     8
 71
     3
 72
    10
 73
     6
 74
     0
 42
0.00000001
 43
0.00000001
 40
0.0
 40
0.0
 40
0.0
 40
0.0
 40
0.5
 40
0.5
 40
1.0
 40
1.0
 40
1.0
 40
1.0
 10
10.74971226305446
 20
2.333170859910695
 30
0.0
 10
10.72818101152422
 20
2.430220714234761
 30
0.0
 10
10.7531734199023
 20
2.534609444864358
 30
0.0
 10
10.8674641142673
 20
2.696090600332312
 30
0.0
 10
10.952102188724
 20
2.754523952131402
 30
0.0
 10
11.04284341321294
 20
2.79370787343951
 30
0.0
  0
SPLINE
  5
8C
330
1F
100
AcDbEntity
  8
0
  6
Continuous
 62
     7
370
    25
100
AcDbSpline
210
0.0
220
0.0
230
1.0
 70
     8
 71
     3
 72
    10
 73
     6
 74
     0
 42
0.00000001
 43
0.00000001
 40
0.0
 40
0.0
 40
0.0
 40
0.0
 40
0.5
 40
0.5
 40
1.0
 40
1.0
 40
1.0
 40
1.0
 10
11.38237531753104
 20
-0.436722408079205
 30
0.0
 10
11.2854702111775
 20
-0.4172609108747164
 30
0.0
 10
11.19053270474427
 20
-0.3777017131774444
 30
0.0
 10
11.04516571619635
 20
-0.2435116799029077
 30
0.0
 10
10.99901581441728
 20
-0.1466003073774156
 30
0.0
 10
10.99989875713624
 20
-0.0471946263076874
 30
0.0
  0
SPLINE
  5
8E
330
1F
100
AcDbEntity
  8
0
  6
Continuous
 62
     7
370
    25
100
AcDbSpline
210
0.0
220
0.0
230
1.0
 70
     8
 71
     3
 72
    10
 73
     6
 74
     0
 42
0.00000001
 43
0.00000001
 40
0.0
 40
0.0
 40
0.0
 40
0.0
 40
0.5
 40
0.5
 40
1.0
 40
1.0
 40
1.0
 40
1.0
 10
12.7573295453696
 20
-1.044290606507676
 30
0.0
 10
12.54908926750143
 20
-0.9094700242187603
 30
0.0
 10
12.33257996042036
 20
-0.7870673489246002
 30
0.0
 10
11.88223002219438
 20
-0.5788594678190774
 30
0.0
 10
11.64850712144474
 20
-0.4899114471561765
 30
0.0
 10
11.40509637292896
 20
-0.441778700674652
 30
0.0
  0
SPLINE
  5
8F
330
1F
100
AcDbEntity
  8
0
  6
Continuous
 62
     7
370
    25
100
AcDbSpline
210
0.0
220
0.0
230
1.0
 70
     8
 71
     3
 72
    10
 73
     6
 74
     0
 42
0.00000001
 43
0.00000001
 40
0.0
 40
0.0
 40
0.0
 40
0.0
 40
0.5
 40
0.5
 40
1.0
 40
1.0
 40
1.0
 40
1.0
 10
11.2477186099428
 20
-1.939128094715025
 30
0.0
 10
11.49581761030111
 20
-1.942655104514531
 30
0.0
 10
11.74292643827674
 20
-1.904244534990786
 30
0.0
 10
12.22672400244534
 20
-1.794219512749785
 30
0.0
 10
12.46395100888453
 20
-1.719506445700427
 30
0.0
 10
12.69567151227786
 20
-1.630927604872905
 30
0.0
  0
SPLINE
  5
93
330
1F
100
AcDbEntity
  8
0
  6
Continuous
 62
     7
370
    25
100
AcDbSpline
210
0.0
220
0.0
230
1.0
 70
     8
 71
     3
 72
    10
 73
     6
 74
     0
 42
0.00000001
 43
0.00000001
 40
0.0
 40
0.0
 40
0.0
 40
0.0
 40
0.5
 40
0.5
 40
1.0
 40
1.0
 40
1.0
 40
1.0
 10
9.48658779321704
 20
-6.346340972383421
 30
0.0
 10
9.711802943914059
 20
-6.450474010720995
 30
0.0
 10
9.953171077361356
 20
-6.515892424572341
 30
0.0
 10
10.43989335272674
 20
-6.612157762455231
 30
0.0
 10
10.68699954897457
 20
-6.640392895671615
 30
0.0
 10
10.93471502265834
 20
-6.65372131767255
 30
0.0
  0
SPLINE
  5
A1
330
1F
100
AcDbEntity
  8
0
  6
Continuous
 62
     7
370
    25
100
AcDbSpline
210
0.0
220
0.0
230
1.0
 70
     8
 71
     3
 72
    10
 73
     6
 74
     0
 42
0.00000001
 43
0.00000001
 40
0.0
 40
0.0
 40
0.0
 40
0.0
 40
0.5
 40
0.5
 40
1.0
 40
1.0
 40
1.0
 40
1.0
 10
10.76933689216072
 20
-2.24084423893005
 30
0.0
 10
10.78914084708666
 20
-2.143427236378789
 30
0.0
 10
10.85443127010723
 20
-2.058228713969122
 30
0.0
 10
11.02452131789026
 20
-1.957194551257326
 30
0.0
 10
11.12560903170821
 20
-1.93823843442733
 30
0.0
 10
11.22444280177642
 20
-1.939349922140925
 30
0.0
  0
SPLINE
  5
A3
330
1F
100
AcDbEntity
  8
0
  6
Continuous
 62
     7
370
    25
100
AcDbSpline
210
0.0
220
0.0
230
1.0
 70
     8
 71
     3
 72
    10
 73
     6
 74
     0
 42
0.00000001
 43
0.00000001
 40
0.0
 40
0.0
 40
0.0
 40
0.0
 40
0.5
 40
0.5
 40
1.0
 40
1.0
 40
1.0
 40
1.0
 10
3.44404040924291
 20
-10.44694144998918
 30
0.0
 10
3.538307985675802
 20
-10.41538367677482
 30
0.0
 10
3.644737281957758
 20
-10.42932758052961
 30
0.0
 10
3.817280457407776
 20
-10.52611280148474
 30
0.0
 10
3.884240793048625
 20
-10.60417927124653
 30
0.0
 10
3.93269510148677
 20
-10.69032757073422
 30
0.0
  0
SPLINE
  5
A4
330
1F
100
AcDbEntity
  8
0
  6
Continuous
 62
     7
370
    25
100
AcDbSpline
210
0.0
220
0.0
230
1.0
 70
     8
 71
     3
 72
    10
 73
     6
 74
     0
 42
0.00000001
 43
0.00000001
 40
0.0
 40
0.0
 40
0.0
 40
0.0
 40
0.5
 40
0.5
 40
1.0
 40
1.0
 40
1.0
 40
1.0
 10
5.312974958966991
 20
-10.07578738443046
 30
0.0
 10
5.28137655676497
 20
-9.982134351969593
 30
0.0
 10
5.268167073707541
 20
-9.880136460777857
 30
0.0
 10
5.31169555718402
 20
-9.687149939186456
 30
0.0
 10
5.372548316817176
 20
-9.59872726560086
 30
0.0
 10
5.45907763326353
 20
-9.54978907589072
 30
0.0
  0
SPLINE
  5
A5
330
1F
100
AcDbEntity
  8
0
  6
Continuous
 62
     7
370
    25
100
AcDbSpline
210
0.0
220
0.0
230
1.0
 70
     8
 71
     3
 72
    10
 73
     6
 74
     0
 42
0.00000001
 43
0.00000001
 40
0.0
 40
0.0
 40
0.0
 40
0.0
 40
0.5
 40
0.5
 40
1.0
 40
1.0
 40
1.0
 40
1.0
 10
7.9598046070116
 20
-8.18003070375436
 30
0.0
 10
8.158447790244013
 20
-8.328713048140582
 30
0.0
 10
8.38094019783464
 20
-8.442885169427617
 30
0.0
 10
8.837011734540642
 20
-8.638242129941514
 30
0.0
 10
9.072847653239895
 20
-8.717236524827142
 30
0.0
 10
9.31237881473368
 20
-8.781776631804028
 30
0.0
  0
SPLINE
  5
A6
330
1F
100
AcDbEntity
  8
0
  6
Continuous
 62
     7
370
    25
100
AcDbSpline
210
0.0
220
0.0
230
1.0
 70
     8
 71
     3
 72
    10
 73
     6
 74
     0
 42
0.00000001
 43
0.00000001
 40
0.0
 40
0.0
 40
0.0
 40
0.0
 40
0.4999999999999992
 40
0.4999999999999992
 40
1.0
 40
1.0
 40
1.0
 40
1.0
 10
9.70707778743284
 20
-8.343419013134131
 30
0.0
 10
9.617853413698974
 20
-8.111946306606884
 30
0.0
 10
9.514640192209168
 20
-7.885659484450436
 30
0.0
 10
9.272680960693535
 20
-7.452506718213205
 30
0.0
 10
9.135877496778729
 20
-7.243167383697267
 30
0.0
 10
8.967245783150101
 20
-7.061153925580711
 30
0.0
  0
SPLINE
  5
A9
330
1F
100
AcDbEntity
  8
0
  6
Continuous
 62
     7
370
    25
100
AcDbSpline
210
0.0
220
0.0
230
1.0
 70
     8
 71
     3
 72
    10
 73
     6
 74
     0
 42
0.00000001
 43
0.00000001
 40
0.0
 40
0.0
 40
0.0
 40
0.0
 40
0.5
 40
0.5
 40
1.0
 40
1.0
 40
1.0
 40
1.0
 10
7.39544136757946
 20
-8.142938473222939
 30
0.0
 10
7.468723381092556
 20
-8.07576693526044
 30
0.0
 10
7.571622877875639
 20
-8.045216630502813
 30
0.0
 10
7.76861500792585
 20
-8.063454697505112
 30
0.0
 10
7.861538812240471
 20
-8.107536744212439
 30
0.0
 10
7.940843695757669
 20
-8.16652898913634
 30
0.0
  0
SPLINE
  5
AA
330
1F
100
AcDbEntity
  8
0
  6
Continuous
 62
     7
370
    25
100
AcDbSpline
210
0.0
220
0.0
230
1.0
 70
     8
 71
     3
 72
    10
 73
     6
 74
     0
 42
0.00000001
 43
0.00000001
 40
0.0
 40
0.0
 40
0.0
 40
0.0
 40
0.5
 40
0.5
 40
1.0
 40
1.0
 40
1.0
 40
1.0
 10
8.95183607742194
 20
-7.04370819766305
 30
0.0
 10
8.88487738058447
 20
-6.971004123302161
 30
0.0
 10
8.831323637475435
 20
-6.883197193910368
 30
0.0
 10
8.7925941958825
 20
-6.689190604476922
 30
0.0
 10
8.812221216604376
 20
-6.583661425495094
 30
0.0
 10
8.87136472559597
 20
-6.5037595208811
 30
0.0
  0
SPLINE
  5
AB
330
1F
100
AcDbEntity
  8
0
  6
Continuous
 62
     7
370
    25
100
AcDbSpline
210
0.0
220
0.0
230
1.0
 70
     8
 71
     3
 72
    10
 73
     6
 74
     0
 42
0.00000001
 43
0.00000001
 40
0.0
 40
0.0
 40
0.0
 40
0.0
 40
0.5
 40
0.5
 40
1.0
 40
1.0
 40
1.0
 40
1.0
 10
10.59876157116012
 20
-4.23528568739661
 30
0.0
 10
10.840705706534
 20
-4.290318306224439
 30
0.0
 10
11.09040062019357
 20
-4.304123914042391
 30
0.0
 10
11.58650153523232
 20
-4.297090372096481
 30
0.0
 10
11.8340782825068
 20
-4.273332232835128
 30
0.0
 10
12.07915171350862
 20
-4.23486645386152
 30
0.0
  0
SPLINE
  5
AC
330
1F
100
AcDbEntity
  8
0
  6
Continuous
 62
     7
370
    25
100
AcDbSpline
210
0.0
220
0.0
230
1.0
 70
     8
 71
     3
 72
    10
 73
     6
 74
     0
 42
0.00000001
 43
0.00000001
 40
0.0
 40
0.0
 40
0.0
 40
0.0
 40
0.5
 40
0.5
 40
1.0
 40
1.0
 40
1.0
 40
1.0
 10
12.26143106086964
 20
-3.67386830732149
 30
0.0
 10
12.08577210791727
 20
-3.498698289958144
 30
0.0
 10
11.89944299584063
 20
-3.333955590682735
 30
0.0
 10
11.50222313687649
 20
-3.03666453420926
 30
0.0
 10
11.29210097564264
 20
-2.901066517730142
 30
0.0
 10
11.06401669669374
 20
-2.80337764695537
 30
0.0
  0
SPLINE
  5
AF
330
1F
100
AcDbEntity
  8
0
  6
Continuous
 62
     7
370
    25
100
AcDbSpline
210
0.0
220
0.0
230
1.0
 70
     8
 71
     3
 72
    10
 73
     6
 74
     0
 42
0.00000001
 43
0.00000001
 40
0.0
 40
0.0
 40
0.0
 40
0.0
 40
0.5
 40
0.5
 40
1.0
 40
1.0
 40
1.0
 40
1.0
 10
10.0681033279859
 20
-4.430947458162815
 30
0.0
 10
10.10772865269654
 20
-4.33977672460015
 30
0.0
 10
10.18930609217442
 20
-4.270014636563485
 30
0.0
 10
10.37668544792183
 20
-4.206552022140633
 30
0.0
 10
10.47950535095801
 20
-4.209027459444933
 30
0.0
 10
10.57594827473182
 20
-4.23066335473001
 30
0.0
  0
SPLINE
  5
B0
330
1F
100
AcDbEntity
  8
0
  6
Continuous
 62
     7
370
    25
100
AcDbSpline
210
0.0
220
0.0
230
1.0
 70
     8
 71
     3
 72
    10
 73
     6
 74
     0
 42
0.00000001
 43
0.00000001
 40
0.0
 40
0.0
 40
0.0
 40
0.0
 40
0.5
 40
0.5
 40
1.0
 40
1.0
 40
1.0
 40
1.0
 10
11.04284341321292
 20
-2.79370787343958
 30
0.0
 10
10.95210218872398
 20
-2.754523952131473
 30
0.0
 10
10.8674641142673
 20
-2.696090600332383
 30
0.0
 10
10.75317341990227
 20
-2.534609444864428
 30
0.0
 10
10.7281810115242
 20
-2.430220714234831
 30
0.0
 10
10.74971226305444
 20
-2.333170859910765
 30
0.0
  0
SPLINE
  5
B1
330
1F
100
AcDbEntity
  8
0
  6
Continuous
 62
     7
370
    25
100
AcDbSpline
210
0.0
220
0.0
230
1.0
 70
     8
 71
     3
 72
    10
 73
     6
 74
     0
 42
0.00000001
 43
0.00000001
 40
0.0
 40
0.0
 40
0.0
 40
0.0
 40
0.5
 40
0.5
 40
1.0
 40
1.0
 40
1.0
 40
1.0
 10
11.40509637292896
 20
0.441778700674578
 30
0.0
 10
11.6485071214448
 20
0.4899114471561023
 30
0.0
 10
11.8822300221944
 20
0.5788594678190002
 30
0.0
 10
12.33257996042037
 20
0.7870673489245179
 30
0.0
 10
12.54908926750136
 20
0.9094700242186172
 30
0.0
 10
12.7573295453696
 20
1.04429060650759
 30
0.0
  0
SPLINE
  5
B2
330
1F
100
AcDbEntity
  8
0
  6
Continuous
 62
     7
370
    25
100
AcDbSpline
210
0.0
220
0.0
230
1.0
 70
     8
 71
     3
 72
    10
 73
     6
 74
     0
 42
0.00000001
 43
0.00000001
 40
0.0
 40
0.0
 40
0.0
 40
0.0
 40
0.5
 40
0.5
 40
1.0
 40
1.0
 40
1.0
 40
1.0
 10
12.69567151227786
 20
1.630927604872825
 30
0.0
 10
12.46395100888452
 20
1.71950644570035
 30
0.0
 10
12.22672400244537
 20
1.794219512749706
 30
0.0
 10
11.74292643827678
 20
1.904244534990705
 30
0.0
 10
11.49581761030106
 20
1.942655104514456
 30
0.0
 10
11.24771860994282
 20
1.93912809471495
 30
0.0
  0
SPLINE
  5
B5
330
1F
100
AcDbEntity
  8
0
  6
Continuous
 62
     7
370
    25
100
AcDbSpline
210
0.0
220
0.0
230
1.0
 70
     8
 71
     3
 72
    10
 73
     6
 74
     0
 42
0.00000001
 43
0.00000001
 40
0.0
 40
0.0
 40
0.0
 40
0.0
 40
0.5
 40
0.5
 40
1.0
 40
1.0
 40
1.0
 40
1.0
 10
10.99989875713624
 20
0.0471946263076162
 30
0.0
 10
10.99901581441728
 20
0.1466003073773439
 30
0.0
 10
11.04516571619636
 20
0.2435116799028357
 30
0.0
 10
11.19053270474426
 20
0.3777017131773713
 30
0.0
 10
11.2854702111775
 20
0.4172609108746468
 30
0.0
 10
11.38237531753104
 20
0.436722408079131
 30
0.0
  0
SPLINE
  5
B6
330
1F
100
AcDbEntity
  8
0
  6
Continuous
 62
     7
370
    25
100
AcDbSpline
210
0.0
220
0.0
230
1.0
 70
     8
 71
     3
 72
    10
 73
     6
 74
     0
 42
0.00000001
 43
0.00000001
 40
0.0
 40
0.0
 40
0.0
 40
0.0
 40
0.5
 40
0.5
 40
1.0
 40
1.0
 40
1.0
 40
1.0
 10
11.22444280177644
 20
1.93934992214085
 30
0.0
 10
11.12560903170814
 20
1.938238434427276
 30
0.0
 10
11.02452131789029
 20
1.957194551257256
 30
0.0
 10
10.85443127010723
 20
2.058228713969052
 30
0.0
 10
10.78914084708671
 20
2.143427236378718
 30
0.0
 10
10.76933689216074
 20
2.24084423892998
 30
0.0
  0
SPLINE
  5
B7
330
1F
100
AcDbEntity
  8
0
  6
Continuous
 62
     7
370
    25
100
AcDbSpline
210
0.0
220
0.0
230
1.0
 70
     8
 71
     3
 72
    10
 73
     6
 74
     0
 42
0.00000001
 43
0.00000001
 40
0.0
 40
0.0
 40
0.0
 40
0.0
 40
0.5
 40
0.5
 40
1.0
 40
1.0
 40
1.0
 40
1.0
 10
10.23938639977058
 20
5.04245553796563
 30
0.0
 10
10.44217583169269
 20
5.185431060617582
 30
0.0
 10
10.61951390668688
 20
5.361752788921315
 30
0.0
 10
10.94624327248006
 20
5.735133975034067
 30
0.0
 10
11.09424871324868
 20
5.935016651809388
 30
0.0
 10
11.22964920213564
 20
6.14288033392921
 30
0.0
  0
SPLINE
  5
B8
330
1F
100
AcDbEntity
  8
0
  6
Continuous
 62
     7
370
    25
100
AcDbSpline
210
0.0
220
0.0
230
1.0
 70
     8
 71
     3
 72
    10
 73
     6
 74
     0
 42
0.00000001
 43
0.00000001
 40
0.0
 40
0.0
 40
0.0
 40
0.0
 40
0.5
 40
0.5
 40
1.0
 40
1.0
 40
1.0
 40
1.0
 10
10.9347150226584
 20
6.653721317672471
 30
0.0
 10
10.686999548974
 20
6.640392895671539
 30
0.0
 10
10.43989335272681
 20
6.612157762455165
 30
0.0
 10
9.953171077361374
 20
6.515892424572271
 30
0.0
 10
9.711802943914094
 20
6.450474010720931
 30
0.0
 10
9.48658779321708
 20
6.346340972383349
 30
0.0
  0
SPLINE
  5
BB
330
1F
100
AcDbEntity
  8
0
  6
Continuous
 62
     7
370
    25
100
AcDbSpline
210
0.0
220
0.0
230
1.0
 70
     8
 71
     3
 72
    10
 73
     6
 74
     0
 42
0.00000001
 43
0.00000001
 40
0.0
 40
0.0
 40
0.0
 40
0.0
 40
0.5
 40
0.5
 40
1.0
 40
1.0
 40
1.0
 40
1.0
 10
10.02971176023474
 20
4.51717633113974
 30
0.0
 10
9.988473218903485
 20
4.6076288143873
 30
0.0
 10
9.991215845707552
 20
4.714932614679785
 30
0.0
 10
10.06943519411833
 20
4.896647390974663
 30
0.0
 10
10.14007474660611
 20
4.971401079007624
 30
0.0
 10
10.22068626229566
 20
5.028594899032861
 30
0.0
  0
SPLINE
  5
BC
330
1F
100
AcDbEntity
  8
0
  6
Continuous
 62
     7
370
    25
100
AcDbSpline
210
0.0
220
0.0
230
1.0
 70
     8
 71
     3
 72
    10
 73
     6
 74
     0
 42
0.00000001
 43
0.00000001
 40
0.0
 40
0.0
 40
0.0
 40
0.0
 40
0.5
 40
0.5
 40
1.0
 40
1.0
 40
1.0
 40
1.0
 10
9.465234059051161
 20
6.33707649774219
 30
0.0
 10
9.375397000125066
 20
6.295861787330121
 30
0.0
 10
9.275338631018057
 20
6.272062984380202
 30
0.0
 10
9.078859344298284
 20
6.295180429736422
 30
0.0
 10
8.984560213920359
 20
6.346457145397259
 30
0.0
 10
8.926845336258191
 20
6.427397011428909
 30
0.0
  0
SPLINE
  5
BD
330
1F
100
AcDbEntity
  8
0
  6
Continuous
 62
     7
370
    25
100
AcDbSpline
210
0.0
220
0.0
230
1.0
 70
     8
 71
     3
 72
    10
 73
     6
 74
     0
 42
0.00000001
 43
0.00000001
 40
0.0
 40
0.0
 40
0.0
 40
0.0
 40
0.5
 40
0.5
 40
1.0
 40
1.0
 40
1.0
 40
1.0
 10
7.30319349618671
 20
8.77124600347198
 30
0.0
 10
7.430297476451626
 20
8.98434253553599
 30
0.0
 10
7.52058736145806
 20
9.217550342824214
 30
0.0
 10
7.667201679229706
 20
9.69154383480374
 30
0.0
 10
7.721111768389818
 20
9.934344982368076
 30
0.0
 10
7.76026049369215
 20
10.1793102452986
 30
0.0
  0
SPLINE
  5
BE
330
1F
100
AcDbEntity
  8
0
  6
Continuous
 62
     7
370
    25
100
AcDbSpline
210
0.0
220
0.0
230
1.0
 70
     8
 71
     3
 72
    10
 73
     6
 74
     0
 42
0.00000001
 43
0.00000001
 40
0.0
 40
0.0
 40
0.0
 40
0.0
 40
0.5
 40
0.5
 40
1.0
 40
1.0
 40
1.0
 40
1.0
 10
7.28304696685388
 20
10.52602616748602
 30
0.0
 10
7.062168778704305
 20
10.41309508790552
 30
0.0
 10
6.847910298868129
 20
10.28679386546464
 30
0.0
 10
6.442422015449635
 20
10.00088331892095
 30
0.0
 10
6.248529319564406
 20
9.842947359757064
 30
0.0
 10
6.08513976409959
 20
9.65621384122892
 30
0.0
  0
SPLINE
  5
C1
330
1F
100
AcDbEntity
  8
0
  6
Continuous
 62
     7
370
    25
100
AcDbSpline
210
0.0
220
0.0
230
1.0
 70
     8
 71
     3
 72
    10
 73
     6
 74
     0
 42
0.00000001
 43
0.00000001
 40
0.0
 40
0.0
 40
0.0
 40
0.0
 40
0.5
 40
0.5
 40
1.0
 40
1.0
 40
1.0
 40
1.0
 10
7.32529648291777
 20
8.20609721105913
 30
0.0
 10
7.250832861410815
 20
8.27195644039603
 30
0.0
 10
7.209693988149441
 20
8.371098866560516
 30
0.0
 10
7.207240860482425
 20
8.568918250227416
 30
0.0
 10
7.241368238659526
 20
8.665940836819242
 30
0.0
 10
7.291747700289601
 20
8.75097764859331
 30
0.0
  0
SPLINE
  5
C2
330
1F
100
AcDbEntity
  8
0
  6
Continuous
 62
     7
370
    25
100
AcDbSpline
210
0.0
220
0.0
230
1.0
 70
     8
 71
     3
 72
    10
 73
     6
 74
     0
 42
0.00000001
 43
0.00000001
 40
0.0
 40
0.0
 40
0.0
 40
0.0
 40
0.5
 40
0.5
 40
1.0
 40
1.0
 40
1.0
 40
1.0
 10
6.06940035856401
 20
9.639064976351259
 30
0.0
 10
6.004093654412438
 20
9.564873441094875
 30
0.0
 10
5.922365631036678
 20
9.502434747600416
 30
0.0
 10
5.733470159012303
 20
9.443638259283553
 30
0.0
 10
5.626467497600058
 20
9.452126958223447
 30
0.0
 10
5.54082112387268
 20
9.50259444958304
 30
0.0
  0
SPLINE
  5
C3
330
1F
100
AcDbEntity
  8
0
  6
Continuous
 62
     7
370
    25
100
AcDbSpline
210
0.0
220
0.0
230
1.0
 70
     8
 71
     3
 72
    10
 73
     6
 74
     0
 42
0.00000001
 43
0.00000001
 40
0.0
 40
0.0
 40
0.0
 40
0.0
 40
0.5000000000000001
 40
0.5000000000000001
 40
1.0
 40
1.0
 40
1.0
 40
1.0
 10
2.372073926075775
 20
12.57828546699554
 30
0.0
 10
2.216224868807154
 20
12.38527853944192
 30
0.0
 10
2.07186134302314
 20
12.18274985654681
 30
0.0
 10
1.817719659500017
 20
11.75663063225552
 30
0.0
 10
1.704828209755273
 20
11.53348568992161
 30
0.0
 10
1.631515788010005
 20
11.29643961297722
 30
0.0
  0
SPLINE
  5
C5
330
1F
100
AcDbEntity
  8
0
  6
Continuous
 62
     7
370
    25
100
AcDbSpline
210
0.0
220
0.0
230
1.0
 70
     8
 71
     3
 72
    10
 73
     6
 74
     0
 42
0.00000001
 43
0.00000001
 40
0.0
 40
0.0
 40
0.0
 40
0.0
 40
0.5
 40
0.5
 40
1.0
 40
1.0
 40
1.0
 40
1.0
 10
1.62411219730988
 20
11.27437155239296
 30
0.0
 10
1.59462797037345
 20
11.18003158274703
 30
0.0
 10
1.545361810446378
 20
11.08974921605093
 30
0.0
 10
1.396711896291892
 20
10.95920524104032
 30
0.0
 10
1.295507436092177
 20
10.92343815009515
 30
0.0
 10
1.196738602389908
 20
10.93470697904382
 30
0.0
  0
SPLINE
  5
C6
330
1F
100
AcDbEntity
  8
0
  6
Continuous
 62
     7
370
    25
100
AcDbSpline
210
0.0
220
0.0
230
1.0
 70
     8
 71
     3
 72
    10
 73
     6
 74
     0
 42
0.00000001
 43
0.00000001
 40
0.0
 40
0.0
 40
0.0
 40
0.0
 40
0.5
 40
0.5
 40
1.0
 40
1.0
 40
1.0
 40
1.0
 10
3.354270895474965
 20
10.47610933313362
 30
0.0
 10
3.259457630431617
 20
10.50598764949518
 30
0.0
 10
3.181550542026613
 20
10.57982607536718
 30
0.0
 10
3.098849106341413
 20
10.75954529783741
 30
0.0
 10
3.090563376483447
 20
10.86206069634389
 30
0.0
 10
3.101999717455235
 20
10.96023686257582
 30
0.0
  0
SPLINE
  5
C8
330
1F
100
AcDbEntity
  8
0
  6
Continuous
 62
     7
370
    25
100
AcDbSpline
210
0.0
220
0.0
230
1.0
 70
     8
 71
     3
 72
    10
 73
     6
 74
     0
 42
0.00000001
 43
0.00000001
 40
0.0
 40
0.0
 40
0.0
 40
0.0
 40
0.5
 40
0.5
 40
1.0
 40
1.0
 40
1.0
 40
1.0
 10
3.10421208968213
 20
10.98340835070964
 30
0.0
 10
3.133653185398613
 20
11.22977956587062
 30
0.0
 10
3.121282939041842
 20
11.4795497036368
 30
0.0
 10
3.062431261299967
 20
11.97219772062414
 30
0.0
 10
3.012924454677951
 20
12.21593481478493
 30
0.0
 10
2.94905224613593
 20
12.45564493912542
 30
0.0
  0
SPLINE
  5
E8
330
1F
100
AcDbEntity
  8
0
  6
Continuous
 62
     7
370
    25
100
AcDbSpline
210
0.0
220
0.0
230
1.0
 70
     8
 71
     3
 72
    10
 73
     6
 74
     0
 42
0.00000001
 43
0.00000001
 40
0.0
 40
0.0
 40
0.0
 40
0.0
 40
0.5
 40
0.5
 40
1.0
 40
1.0
 40
1.0
 40
1.0
 10
11.2296492021356
 20
-6.14288033392929
 30
0.0
 10
11.09424871324863
 20
-5.93501665180911
 30
0.0
 10
10.94624327248004
 20
-5.735133975034148
 30
0.0
 10
10.61951390668683
 20
-5.361752788921377
 30
0.0
 10
10.44217583169264
 20
-5.185431060617649
 30
0.0
 10
10.23938639977054
 20
-5.0424555379657
 30
0.0
  0
SPLINE
  5
EB
330
1F
100
AcDbEntity
  8
0
  6
Continuous
 62
     7
370
    25
100
AcDbSpline
210
0.0
220
0.0
230
1.0
 70
     8
 71
     3
 72
    10
 73
     6
 74
     0
 42
0.00000001
 43
0.00000001
 40
0.0
 40
0.0
 40
0.0
 40
0.0
 40
0.5
 40
0.5
 40
1.0
 40
1.0
 40
1.0
 40
1.0
 10
8.92684533625815
 20
-6.42739701142897
 30
0.0
 10
8.984560213920318
 20
-6.346457145397318
 30
0.0
 10
9.07885934429824
 20
-6.295180429736482
 30
0.0
 10
9.275338631018009
 20
-6.272062984380273
 30
0.0
 10
9.375397000125027
 20
-6.295861787330193
 30
0.0
 10
9.46523405905112
 20
-6.33707649774226
 30
0.0
  0
SPLINE
  5
EC
330
1F
100
AcDbEntity
  8
0
  6
Continuous
 62
     7
370
    25
100
AcDbSpline
210
0.0
220
0.0
230
1.0
 70
     8
 71
     3
 72
    10
 73
     6
 74
     0
 42
0.00000001
 43
0.00000001
 40
0.0
 40
0.0
 40
0.0
 40
0.0
 40
0.5
 40
0.5
 40
1.0
 40
1.0
 40
1.0
 40
1.0
 10
10.22068626229562
 20
-5.02859489903293
 30
0.0
 10
10.14007474660615
 20
-4.971401079007692
 30
0.0
 10
10.06943519411831
 20
-4.896647390974734
 30
0.0
 10
9.991215845707531
 20
-4.714932614679855
 30
0.0
 10
9.98847321890345
 20
-4.607628814387378
 30
0.0
 10
10.0297117602347
 20
-4.5171763311398
 30
0.0
  0
SPLINE
  5
ED
330
1F
100
AcDbEntity
  8
0
  6
Continuous
 62
     7
370
    25
100
AcDbSpline
210
0.0
220
0.0
230
1.0
 70
     8
 71
     3
 72
    10
 73
     6
 74
     0
 42
0.00000001
 43
0.00000001
 40
0.0
 40
0.0
 40
0.0
 40
0.0
 40
0.5
 40
0.5
 40
1.0
 40
1.0
 40
1.0
 40
1.0
 10
6.08513976409953
 20
-9.65621384122896
 30
0.0
 10
6.248529319564343
 20
-9.842947359757105
 30
0.0
 10
6.442422015449573
 20
-10.000883318921
 30
0.0
 10
6.847910298868068
 20
-10.28679386546469
 30
0.0
 10
7.062168778704581
 20
-10.4130950879063
 30
0.0
 10
7.28304696685381
 20
-10.52602616748606
 30
0.0
  0
SPLINE
  5
EE
330
1F
100
AcDbEntity
  8
0
  6
Continuous
 62
     7
370
    25
100
AcDbSpline
210
0.0
220
0.0
230
1.0
 70
     8
 71
     3
 72
    10
 73
     6
 74
     0
 42
0.00000001
 43
0.00000001
 40
0.0
 40
0.0
 40
0.0
 40
0.0
 40
0.5
 40
0.5
 40
1.0
 40
1.0
 40
1.0
 40
1.0
 10
7.76026049369209
 20
-10.17931024529864
 30
0.0
 10
7.721111768389762
 20
-9.934344982368142
 30
0.0
 10
7.66720167922965
 20
-9.69154383480379
 30
0.0
 10
7.520587361457998
 20
-9.217550342824268
 30
0.0
 10
7.430297476451543
 20
-8.984342535536062
 30
0.0
 10
7.30319349618666
 20
-8.771246003472019
 30
0.0
  0
SPLINE
  5
F1
330
1F
100
AcDbEntity
  8
0
  6
Continuous
 62
     7
370
    25
100
AcDbSpline
210
0.0
220
0.0
230
1.0
 70
     8
 71
     3
 72
    10
 73
     6
 74
     0
 42
0.00000001
 43
0.00000001
 40
0.0
 40
0.0
 40
0.0
 40
0.0
 40
0.5
 40
0.5
 40
1.0
 40
1.0
 40
1.0
 40
1.0
 10
5.54082112387262
 20
-9.50259444958307
 30
0.0
 10
5.626467497599998
 20
-9.452126958223479
 30
0.0
 10
5.733470159012244
 20
-9.443638259283569
 30
0.0
 10
5.922365631036619
 20
-9.502434747600459
 30
0.0
 10
6.004093654412377
 20
-9.564873441094923
 30
0.0
 10
6.06940035856395
 20
-9.6390649763513
 30
0.0
  0
SPLINE
  5
F2
330
1F
100
AcDbEntity
  8
0
  6
Continuous
 62
     7
370
    25
100
AcDbSpline
210
0.0
220
0.0
230
1.0
 70
     8
 71
     3
 72
    10
 73
     6
 74
     0
 42
0.00000001
 43
0.00000001
 40
0.0
 40
0.0
 40
0.0
 40
0.0
 40
0.5
 40
0.5
 40
1.0
 40
1.0
 40
1.0
 40
1.0
 10
7.29174770028955
 20
-8.75097764859336
 30
0.0
 10
7.241368238659478
 20
-8.665940836819251
 30
0.0
 10
7.207240860482377
 20
-8.568918250227474
 30
0.0
 10
7.20969398814939
 20
-8.371098866560548
 30
0.0
 10
7.250832861410764
 20
-8.271956440396066
 30
0.0
 10
7.32529648291772
 20
-8.20609721105918
 30
0.0
  0
SPLINE
  5
F3
330
1F
100
AcDbEntity
  8
0
  6
Continuous
 62
     7
370
    25
100
AcDbSpline
210
0.0
220
0.0
230
1.0
 70
     8
 71
     3
 72
    10
 73
     6
 74
     0
 42
0.00000001
 43
0.00000001
 40
0.0
 40
0.0
 40
0.0
 40
0.0
 40
0.4999999999999999
 40
0.4999999999999999
 40
1.0
 40
1.0
 40
1.0
 40
1.0
 10
1.63151578800993
 20
-11.29643961297724
 30
0.0
 10
1.704828209755215
 20
-11.53348568992164
 30
0.0
 10
1.817719659499945
 20
-11.75663063225552
 30
0.0
 10
2.071861343023059
 20
-12.18274985654683
 30
0.0
 10
2.21622486880721
 20
-12.3852785394426
 30
0.0
 10
2.37207392607569
 20
-12.57828546699556
 30
0.0
  0
SPLINE
  5
F4
330
1F
100
AcDbEntity
  8
0
  6
Continuous
 62
     7
370
    25
100
AcDbSpline
210
0.0
220
0.0
230
1.0
 70
     8
 71
     3
 72
    10
 73
     6
 74
     0
 42
0.00000001
 43
0.00000001
 40
0.0
 40
0.0
 40
0.0
 40
0.0
 40
0.5
 40
0.5
 40
1.0
 40
1.0
 40
1.0
 40
1.0
 10
2.94905224613585
 20
-12.45564493912544
 30
0.0
 10
3.012924454677837
 20
-12.21593481478495
 30
0.0
 10
3.062431261299888
 20
-11.97219772062417
 30
0.0
 10
3.12128293904177
 20
-11.47954970363681
 30
0.0
 10
3.133653185398528
 20
-11.22977956587064
 30
0.0
 10
3.10421208968206
 20
-10.98340835070966
 30
0.0
  0
SPLINE
  5
F7
330
1F
100
AcDbEntity
  8
0
  6
Continuous
 62
     7
370
    25
100
AcDbSpline
210
0.0
220
0.0
230
1.0
 70
     8
 71
     3
 72
    10
 73
     6
 74
     0
 42
0.00000001
 43
0.00000001
 40
0.0
 40
0.0
 40
0.0
 40
0.0
 40
0.5
 40
0.5
 40
1.0
 40
1.0
 40
1.0
 40
1.0
 10
1.196738602389838
 20
-10.93470697904384
 30
0.0
 10
1.295507436092108
 20
-10.92343815009517
 30
0.0
 10
1.396711896291823
 20
-10.95920524104031
 30
0.0
 10
1.545361810446305
 20
-11.08974921605094
 30
0.0
 10
1.594627970373359
 20
-11.18003158274697
 30
0.0
 10
1.62411219730981
 20
-11.27437155239298
 30
0.0
  0
SPLINE
  5
F8
330
1F
100
AcDbEntity
  8
0
  6
Continuous
 62
     7
370
    25
100
AcDbSpline
210
0.0
220
0.0
230
1.0
 70
     8
 71
     3
 72
    10
 73
     6
 74
     0
 42
0.00000001
 43
0.00000001
 40
0.0
 40
0.0
 40
0.0
 40
0.0
 40
0.5
 40
0.5
 40
1.0
 40
1.0
 40
1.0
 40
1.0
 10
3.101999717455165
 20
-10.96023686257584
 30
0.0
 10
3.090563376483379
 20
-10.8620606963439
 30
0.0
 10
3.098849106341347
 20
-10.75954529783741
 30
0.0
 10
3.181550542026546
 20
-10.57982607536718
 30
0.0
 10
3.259457630431547
 20
-10.50598764949523
 30
0.0
 10
3.354270895474895
 20
-10.47610933313364
 30
0.0
  0
SPLINE
  5
F9
330
1F
100
AcDbEntity
  8
0
  6
Continuous
 62
     7
370
    25
100
AcDbSpline
210
0.0
220
0.0
230
1.0
 70
     8
 71
     3
 72
    10
 73
     6
 74
     0
 42
0.00000001
 43
0.00000001
 40
0.0
 40
0.0
 40
0.0
 40
0.0
 40
0.5
 40
0.5
 40
1.0
 40
1.0
 40
1.0
 40
1.0
 10
-3.104212089682205
 20
-10.98340835070962
 30
0.0
 10
-3.133653185398688
 20
-11.2297795658706
 30
0.0
 10
-3.121282939041923
 20
-11.47954970363677
 30
0.0
 10
-3.062431261300046
 20
-11.97219772062413
 30
0.0
 10
-3.012924454678203
 20
-12.21593481478563
 30
0.0
 10
-2.949052246136015
 20
-12.4556449391254
 30
0.0
  0
SPLINE
  5
FA
330
1F
100
AcDbEntity
  8
0
  6
Continuous
 62
     7
370
    25
100
AcDbSpline
210
0.0
220
0.0
230
1.0
 70
     8
 71
     3
 72
    10
 73
     6
 74
     0
 42
0.00000001
 43
0.00000001
 40
0.0
 40
0.0
 40
0.0
 40
0.0
 40
0.4999999999999998
 40
0.4999999999999998
 40
1.0
 40
1.0
 40
1.0
 40
1.0
 10
-2.37207392607586
 20
-12.57828546699554
 30
0.0
 10
-2.216224868807255
 20
-12.38527853944194
 30
0.0
 10
-2.071861343023221
 20
-12.18274985654683
 30
0.0
 10
-1.817719659500096
 20
-11.75663063225549
 30
0.0
 10
-1.704828209755366
 20
-11.53348568992161
 30
0.0
 10
-1.63151578801008
 20
-11.29643961297722
 30
0.0
  0
SPLINE
  5
FD
330
1F
100
AcDbEntity
  8
0
  6
Continuous
 62
     7
370
    25
100
AcDbSpline
210
0.0
220
0.0
230
1.0
 70
     8
 71
     3
 72
    10
 73
     6
 74
     0
 42
0.00000001
 43
0.00000001
 40
0.0
 40
0.0
 40
0.0
 40
0.0
 40
0.5
 40
0.5
 40
1.0
 40
1.0
 40
1.0
 40
1.0
 10
-3.354270895475035
 20
-10.4761093331336
 30
0.0
 10
-3.259457630431686
 20
-10.50598764949517
 30
0.0
 10
-3.181550542026687
 20
-10.57982607536714
 30
0.0
 10
-3.098849106341488
 20
-10.75954529783737
 30
0.0
 10
-3.090563376483523
 20
-10.86206069634372
 30
0.0
 10
-3.10199971745531
 20
-10.96023686257582
 30
0.0
  0
SPLINE
  5
FE
330
1F
100
AcDbEntity
  8
0
  6
Continuous
 62
     7
370
    25
100
AcDbSpline
210
0.0
220
0.0
230
1.0
 70
     8
 71
     3
 72
    10
 73
     6
 74
     0
 42
0.00000001
 43
0.00000001
 40
0.0
 40
0.0
 40
0.0
 40
0.0
 40
0.5
 40
0.5
 40
1.0
 40
1.0
 40
1.0
 40
1.0
 10
-1.62411219730996
 20
-11.27437155239296
 30
0.0
 10
-1.594627970373508
 20
-11.18003158274703
 30
0.0
 10
-1.545361810446452
 20
-11.08974921605093
 30
0.0
 10
-1.39671189629197
 20
-10.95920524104029
 30
0.0
 10
-1.295507436092254
 20
-10.92343815009515
 30
0.0
 10
-1.196738602389982
 20
-10.93470697904382
 30
0.0
  0
SPLINE
  5
FF
330
1F
100
AcDbEntity
  8
0
  6
Continuous
 62
     7
370
    25
100
AcDbSpline
210
0.0
220
0.0
230
1.0
 70
     8
 71
     3
 72
    10
 73
     6
 74
     0
 42
0.00000001
 43
0.00000001
 40
0.0
 40
0.0
 40
0.0
 40
0.0
 40
0.5
 40
0.5
 40
1.0
 40
1.0
 40
1.0
 40
1.0
 10
-7.303193496186781
 20
-8.77124600347193
 30
0.0
 10
-7.430297476451662
 20
-8.984342535535935
 30
0.0
 10
-7.520587361458115
 20
-9.217550342824165
 30
0.0
 10
-7.667201679229772
 20
-9.691543834803685
 30
0.0
 10
-7.721111768389888
 20
-9.934344982368016
 30
0.0
 10
-7.76026049369222
 20
-10.17931024529854
 30
0.0
  0
SPLINE
  5
100
330
1F
100
AcDbEntity
  8
0
  6
Continuous
 62
     7
370
    25
100
AcDbSpline
210
0.0
220
0.0
230
1.0
 70
     8
 71
     3
 72
    10
 73
     6
 74
     0
 42
0.00000001
 43
0.00000001
 40
0.0
 40
0.0
 40
0.0
 40
0.0
 40
0.5
 40
0.5
 40
1.0
 40
1.0
 40
1.0
 40
1.0
 10
-7.283046966853949
 20
-10.52602616748598
 30
0.0
 10
-7.06216877870478
 20
-10.41309508790549
 30
0.0
 10
-6.847910298868203
 20
-10.28679386546459
 30
0.0
 10
-6.442422015449701
 20
-10.00088331892092
 30
0.0
 10
-6.2485293195645
 20
-9.842947359756987
 30
0.0
 10
-6.085139764099651
 20
-9.65621384122888
 30
0.0
  0
SPLINE
  5
103
330
1F
100
AcDbEntity
  8
0
  6
Continuous
 62
     7
370
    25
100
AcDbSpline
210
0.0
220
0.0
230
1.0
 70
     8
 71
     3
 72
    10
 73
     6
 74
     0
 42
0.00000001
 43
0.00000001
 40
0.0
 40
0.0
 40
0.0
 40
0.0
 40
0.5
 40
0.5
 40
1.0
 40
1.0
 40
1.0
 40
1.0
 10
-7.32529648291783
 20
-8.206097211059081
 30
0.0
 10
-7.250832861410873
 20
-8.271956440395982
 30
0.0
 10
-7.209693988149493
 20
-8.371098866560468
 30
0.0
 10
-7.207240860482492
 20
-8.568918250227366
 30
0.0
 10
-7.241368238659589
 20
-8.66594083681916
 30
0.0
 10
-7.29174770028966
 20
-8.750977648593269
 30
0.0
  0
SPLINE
  5
104
330
1F
100
AcDbEntity
  8
0
  6
Continuous
 62
     7
370
    25
100
AcDbSpline
210
0.0
220
0.0
230
1.0
 70
     8
 71
     3
 72
    10
 73
     6
 74
     0
 42
0.00000001
 43
0.00000001
 40
0.0
 40
0.0
 40
0.0
 40
0.0
 40
0.5
 40
0.5
 40
1.0
 40
1.0
 40
1.0
 40
1.0
 10
-6.06940035856407
 20
-9.63906497635122
 30
0.0
 10
-6.004093654412541
 20
-9.564873441094836
 30
0.0
 10
-5.922365631036745
 20
-9.502434747600361
 30
0.0
 10
-5.733470159012367
 20
-9.443638259283524
 30
0.0
 10
-5.626467497600133
 20
-9.452126958223406
 30
0.0
 10
-5.54082112387274
 20
-9.502594449582999
 30
0.0
  0
SPLINE
  5
105
330
1F
100
AcDbEntity
  8
0
  6
Continuous
 62
     7
370
    25
100
AcDbSpline
210
0.0
220
0.0
230
1.0
 70
     8
 71
     3
 72
    10
 73
     6
 74
     0
 42
0.00000001
 43
0.00000001
 40
0.0
 40
0.0
 40
0.0
 40
0.0
 40
0.5
 40
0.5
 40
1.0
 40
1.0
 40
1.0
 40
1.0
 10
-10.23938639977062
 20
-5.04245553796556
 30
0.0
 10
-10.44217583169273
 20
-5.185431060617511
 30
0.0
 10
-10.61951390668691
 20
-5.36175278892123
 30
0.0
 10
-10.9462432724801
 20
-5.735133975034006
 30
0.0
 10
-11.09424871324802
 20
-5.935016651809318
 30
0.0
 10
-11.2296492021357
 20
-6.14288033392913
 30
0.0
  0
SPLINE
  5
106
330
1F
100
AcDbEntity
  8
0
  6
Continuous
 62
     7
370
    25
100
AcDbSpline
210
0.0
220
0.0
230
1.0
 70
     8
 71
     3
 72
    10
 73
     6
 74
     0
 42
0.00000001
 43
0.00000001
 40
0.0
 40
0.0
 40
0.0
 40
0.0
 40
0.5
 40
0.5
 40
1.0
 40
1.0
 40
1.0
 40
1.0
 10
-10.93471502265842
 20
-6.65372131767239
 30
0.0
 10
-10.68699954897547
 20
-6.640392895671838
 30
0.0
 10
-10.43989335272683
 20
-6.612157762455087
 30
0.0
 10
-9.953171077361427
 20
-6.515892424572206
 30
0.0
 10
-9.711802943914112
 20
-6.450474010720868
 30
0.0
 10
-9.486587793217131
 20
-6.34634097238329
 30
0.0
  0
SPLINE
  5
109
330
1F
100
AcDbEntity
  8
0
  6
Continuous
 62
     7
370
    25
100
AcDbSpline
210
0.0
220
0.0
230
1.0
 70
     8
 71
     3
 72
    10
 73
     6
 74
     0
 42
0.00000001
 43
0.00000001
 40
0.0
 40
0.0
 40
0.0
 40
0.0
 40
0.5
 40
0.5
 40
1.0
 40
1.0
 40
1.0
 40
1.0
 10
-10.02971176023476
 20
-4.51717633113967
 30
0.0
 10
-9.98847321890351
 20
-4.607628814387232
 30
0.0
 10
-9.991215845707558
 20
-4.714932614679711
 30
0.0
 10
-10.06943519411839
 20
-4.896647390974601
 30
0.0
 10
-10.14007474660615
 20
-4.971401079007554
 30
0.0
 10
-10.2206862622957
 20
-5.02859489903279
 30
0.0
  0
SPLINE
  5
10A
330
1F
100
AcDbEntity
  8
0
  6
Continuous
 62
     7
370
    25
100
AcDbSpline
210
0.0
220
0.0
230
1.0
 70
     8
 71
     3
 72
    10
 73
     6
 74
     0
 42
0.00000001
 43
0.00000001
 40
0.0
 40
0.0
 40
0.0
 40
0.0
 40
0.5
 40
0.5
 40
1.0
 40
1.0
 40
1.0
 40
1.0
 10
-9.4652340590512
 20
-6.337076497742121
 30
0.0
 10
-9.375397000125146
 20
-6.295861787330093
 30
0.0
 10
-9.275338631018078
 20
-6.272062984380144
 30
0.0
 10
-9.078859344298333
 20
-6.295180429736365
 30
0.0
 10
-8.984560213920409
 20
-6.346457145397182
 30
0.0
 10
-8.926845336258241
 20
-6.42739701142885
 30
0.0
  0
SPLINE
  5
10B
330
1F
100
AcDbEntity
  8
0
  6
Continuous
 62
     7
370
    25
100
AcDbSpline
210
0.0
220
0.0
230
1.0
 70
     8
 71
     3
 72
    10
 73
     6
 74
     0
 42
0.00000001
 43
0.00000001
 40
0.0
 40
0.0
 40
0.0
 40
0.0
 40
0.5
 40
0.5
 40
1.0
 40
1.0
 40
1.0
 40
1.0
 10
-11.40509637292896
 20
-0.4417787006745005
 30
0.0
 10
-11.6485071214448
 20
-0.4899114471560231
 30
0.0
 10
-11.8822300221944
 20
-0.5788594678189192
 30
0.0
 10
-12.33257996042037
 20
-0.7870673489244351
 30
0.0
 10
-12.54908926750212
 20
-0.9094700242185392
 30
0.0
 10
-12.7573295453696
 20
-1.044290606507504
 30
0.0
  0
SPLINE
  5
10C
330
1F
100
AcDbEntity
  8
0
  6
Continuous
 62
     7
370
    25
100
AcDbSpline
210
0.0
220
0.0
230
1.0
 70
     8
 71
     3
 72
    10
 73
     6
 74
     0
 42
0.00000001
 43
0.00000001
 40
0.0
 40
0.0
 40
0.0
 40
0.0
 40
0.5
 40
0.5
 40
1.0
 40
1.0
 40
1.0
 40
1.0
 10
-12.69567151227788
 20
-1.630927604872735
 30
0.0
 10
-12.46395100888448
 20
-1.719506445700465
 30
0.0
 10
-12.22672400244538
 20
-1.794219512749628
 30
0.0
 10
-11.74292643827677
 20
-1.904244534990623
 30
0.0
 10
-11.49581761030108
 20
-1.942655104514381
 30
0.0
 10
-11.24771860994284
 20
-1.939128094714875
 30
0.0
  0
SPLINE
  5
10F
330
1F
100
AcDbEntity
  8
0
  6
Continuous
 62
     7
370
    25
100
AcDbSpline
210
0.0
220
0.0
230
1.0
 70
     8
 71
     3
 72
    10
 73
     6
 74
     0
 42
0.00000001
 43
0.00000001
 40
0.0
 40
0.0
 40
0.0
 40
0.0
 40
0.5
 40
0.5
 40
1.0
 40
1.0
 40
1.0
 40
1.0
 10
-10.99989875713624
 20
-0.0471946263075416
 30
0.0
 10
-10.99901581441728
 20
-0.1466003073772692
 30
0.0
 10
-11.04516571619637
 20
-0.2435116799027612
 30
0.0
 10
-11.19053270474427
 20
-0.3777017131772951
 30
0.0
 10
-11.2854702111775
 20
-0.4172609108745696
 30
0.0
 10
-11.38237531753104
 20
-0.436722408079054
 30
0.0
  0
SPLINE
  5
110
330
1F
100
AcDbEntity
  8
0
  6
Continuous
 62
     7
370
    25
100
AcDbSpline
210
0.0
220
0.0
230
1.0
 70
     8
 71
     3
 72
    10
 73
     6
 74
     0
 42
0.00000001
 43
0.00000001
 40
0.0
 40
0.0
 40
0.0
 40
0.0
 40
0.5
 40
0.5
 40
1.0
 40
1.0
 40
1.0
 40
1.0
 10
-11.22444280177644
 20
-1.939349922140775
 30
0.0
 10
-11.12560903170823
 20
-1.93823843442718
 30
0.0
 10
-11.02452131789026
 20
-1.957194551257181
 30
0.0
 10
-10.85443127010729
 20
-2.058228713968976
 30
0.0
 10
-10.78914084708671
 20
-2.143427236378643
 30
0.0
 10
-10.76933689216074
 20
-2.240844238929905
 30
0.0
  0
SPLINE
  5
111
330
1F
100
AcDbEntity
  8
0
  6
Continuous
 62
     7
370
    25
100
AcDbSpline
210
0.0
220
0.0
230
1.0
 70
     8
 71
     3
 72
    10
 73
     6
 74
     0
 42
0.00000001
 43
0.00000001
 40
0.0
 40
0.0
 40
0.0
 40
0.0
 40
0.5
 40
0.5
 40
1.0
 40
1.0
 40
1.0
 40
1.0
 10
-10.5987615711601
 20
4.235285687396675
 30
0.0
 10
-10.84070570653399
 20
4.290318306224521
 30
0.0
 10
-11.09040062019355
 20
4.304123914042456
 30
0.0
 10
-11.58650153523229
 20
4.297090372096558
 30
0.0
 10
-11.83407828250686
 20
4.273332232835159
 30
0.0
 10
-12.0791517135086
 20
4.234866453861596
 30
0.0
  0
SPLINE
  5
112
330
1F
100
AcDbEntity
  8
0
  6
Continuous
 62
     7
370
    25
100
AcDbSpline
210
0.0
220
0.0
230
1.0
 70
     8
 71
     3
 72
    10
 73
     6
 74
     0
 42
0.00000001
 43
0.00000001
 40
0.0
 40
0.0
 40
0.0
 40
0.0
 40
0.5
 40
0.5
 40
1.0
 40
1.0
 40
1.0
 40
1.0
 10
-12.26143106086962
 20
3.673868307321565
 30
0.0
 10
-12.08577210791795
 20
3.498698289958219
 30
0.0
 10
-11.89944299584063
 20
3.333955590682809
 30
0.0
 10
-11.50222313687647
 20
3.036664534209337
 30
0.0
 10
-11.29210097564262
 20
2.901066517730212
 30
0.0
 10
-11.06401669669372
 20
2.80337764695544
 30
0.0
  0
SPLINE
  5
115
330
1F
100
AcDbEntity
  8
0
  6
Continuous
 62
     7
370
    25
100
AcDbSpline
210
0.0
220
0.0
230
1.0
 70
     8
 71
     3
 72
    10
 73
     6
 74
     0
 42
0.00000001
 43
0.00000001
 40
0.0
 40
0.0
 40
0.0
 40
0.0
 40
0.5
 40
0.5
 40
1.0
 40
1.0
 40
1.0
 40
1.0
 10
-10.06810332798586
 20
4.43094745816288
 30
0.0
 10
-10.10772865269653
 20
4.339776724600214
 30
0.0
 10
-10.18930609217438
 20
4.270014636563551
 30
0.0
 10
-10.37668544792179
 20
4.206552022140697
 30
0.0
 10
-10.4795053509579
 20
4.209027459444997
 30
0.0
 10
-10.5759482747318
 20
4.230663354730075
 30
0.0
  0
SPLINE
  5
116
330
1F
100
AcDbEntity
  8
0
  6
Continuous
 62
     7
370
    25
100
AcDbSpline
210
0.0
220
0.0
230
1.0
 70
     8
 71
     3
 72
    10
 73
     6
 74
     0
 42
0.00000001
 43
0.00000001
 40
0.0
 40
0.0
 40
0.0
 40
0.0
 40
0.5
 40
0.5
 40
1.0
 40
1.0
 40
1.0
 40
1.0
 10
-11.0428434132129
 20
2.79370787343965
 30
0.0
 10
-10.95210218872395
 20
2.754523952131542
 30
0.0
 10
-10.86746411426728
 20
2.696090600332453
 30
0.0
 10
-10.75317341990225
 20
2.534609444864498
 30
0.0
 10
-10.72818101152416
 20
2.430220714234902
 30
0.0
 10
-10.74971226305444
 20
2.333170859910835
 30
0.0
  0
SPLINE
  5
117
330
1F
100
AcDbEntity
  8
0
  6
Continuous
 62
     7
370
    25
100
AcDbSpline
210
0.0
220
0.0
230
1.0
 70
     8
 71
     3
 72
    10
 73
     6
 74
     0
 42
0.00000001
 43
0.00000001
 40
0.0
 40
0.0
 40
0.0
 40
0.0
 40
0.5
 40
0.5
 40
1.0
 40
1.0
 40
1.0
 40
1.0
 10
-7.95980460701153
 20
8.18003070375442
 30
0.0
 10
-8.158447790243983
 20
8.328713048140635
 30
0.0
 10
-8.380940197834574
 20
8.442885169427687
 30
0.0
 10
-8.837011734540587
 20
8.638242129941567
 30
0.0
 10
-9.072847653239872
 20
8.717236524827191
 30
0.0
 10
-9.31237881473362
 20
8.78177663180409
 30
0.0
  0
SPLINE
  5
118
330
1F
100
AcDbEntity
  8
0
  6
Continuous
 62
     7
370
    25
100
AcDbSpline
210
0.0
220
0.0
230
1.0
 70
     8
 71
     3
 72
    10
 73
     6
 74
     0
 42
0.00000001
 43
0.00000001
 40
0.0
 40
0.0
 40
0.0
 40
0.0
 40
0.5
 40
0.5
 40
1.0
 40
1.0
 40
1.0
 40
1.0
 10
-9.70707778743278
 20
8.3434190131342
 30
0.0
 10
-9.617853413698915
 20
8.111946306606967
 30
0.0
 10
-9.51464019220911
 20
7.885659484450507
 30
0.0
 10
-9.272680960693492
 20
7.452506718213277
 30
0.0
 10
-9.135877496778685
 20
7.243167383697328
 30
0.0
 10
-8.96724578315005
 20
7.06115392558077
 30
0.0
  0
SPLINE
  5
11B
330
1F
100
AcDbEntity
  8
0
  6
Continuous
 62
     7
370
    25
100
AcDbSpline
210
0.0
220
0.0
230
1.0
 70
     8
 71
     3
 72
    10
 73
     6
 74
     0
 42
0.00000001
 43
0.00000001
 40
0.0
 40
0.0
 40
0.0
 40
0.0
 40
0.5
 40
0.5
 40
1.0
 40
1.0
 40
1.0
 40
1.0
 10
-7.39544136757941
 20
8.142938473223
 30
0.0
 10
-7.46872338109249
 20
8.075766935260495
 30
0.0
 10
-7.571622877875571
 20
8.045216630502866
 30
0.0
 10
-7.768615007925808
 20
8.063454697505163
 30
0.0
 10
-7.861538812240418
 20
8.107536744212487
 30
0.0
 10
-7.940843695757609
 20
8.16652898913639
 30
0.0
  0
SPLINE
  5
11C
330
1F
100
AcDbEntity
  8
0
  6
Continuous
 62
     7
370
    25
100
AcDbSpline
210
0.0
220
0.0
230
1.0
 70
     8
 71
     3
 72
    10
 73
     6
 74
     0
 42
0.00000001
 43
0.00000001
 40
0.0
 40
0.0
 40
0.0
 40
0.0
 40
0.5
 40
0.5
 40
1.0
 40
1.0
 40
1.0
 40
1.0
 10
-8.95183607742188
 20
7.04370819766311
 30
0.0
 10
-8.884877380584493
 20
6.97100412330222
 30
0.0
 10
-8.83132363747542
 20
6.883197193910434
 30
0.0
 10
-8.79259419588243
 20
6.689190604476976
 30
0.0
 10
-8.812221216604325
 20
6.583661425495154
 30
0.0
 10
-8.87136472559592
 20
6.50375952088116
 30
0.0
  0
SPLINE
  5
11D
330
1F
100
AcDbEntity
  8
0
  6
Continuous
 62
     7
370
    25
100
AcDbSpline
210
0.0
220
0.0
230
1.0
 70
     8
 71
     3
 72
    10
 73
     6
 74
     0
 42
0.00000001
 43
0.00000001
 40
0.0
 40
0.0
 40
0.0
 40
0.0
 40
0.5
 40
0.5
 40
1.0
 40
1.0
 40
1.0
 40
1.0
 10
-3.944525113755986
 20
10.71037409818702
 30
0.0
 10
-4.065520133849347
 20
10.92699764005058
 30
0.0
 10
-4.222339076818582
 20
11.12179487781502
 30
0.0
 10
-4.559522323215513
 20
11.48576334755355
 30
0.0
 10
-4.742839240494456
 20
11.65385142806911
 30
0.0
 10
-4.93541101858558
 20
11.81023785017152
 30
0.0
  0
SPLINE
  5
11E
330
1F
100
AcDbEntity
  8
0
  6
Continuous
 62
     7
370
    25
100
AcDbSpline
210
0.0
220
0.0
230
1.0
 70
     8
 71
     3
 72
    10
 73
     6
 74
     0
 42
0.00000001
 43
0.00000001
 40
0.0
 40
0.0
 40
0.0
 40
0.0
 40
0.5
 40
0.5
 40
1.0
 40
1.0
 40
1.0
 40
1.0
 10
-5.47428257851559
 20
11.57031677399372
 30
0.0
 10
-5.486920488796661
 20
11.32256511212499
 30
0.0
 10
-5.484669661552113
 20
11.07386121438926
 30
0.0
 10
-5.439808006744637
 20
10.57974278674006
 30
0.0
 10
-5.399977801880246
 20
10.33285880691324
 30
0.0
 10
-5.31995660882926
 20
10.0979925419036
 30
0.0
  0
SPLINE
  5
121
330
1F
100
AcDbEntity
  8
0
  6
Continuous
 62
     7
370
    25
100
AcDbSpline
210
0.0
220
0.0
230
1.0
 70
     8
 71
     3
 72
    10
 73
     6
 74
     0
 42
0.00000001
 43
0.00000001
 40
0.0
 40
0.0
 40
0.0
 40
0.0
 40
0.5
 40
0.5
 40
1.0
 40
1.0
 40
1.0
 40
1.0
 10
-3.44404040924284
 20
10.4469414499892
 30
0.0
 10
-3.53830798567574
 20
10.41538367677483
 30
0.0
 10
-3.644737281957692
 20
10.42932758052963
 30
0.0
 10
-3.817280457407708
 20
10.52611280148476
 30
0.0
 10
-3.884240793048542
 20
10.60417927124658
 30
0.0
 10
-3.932695101486705
 20
10.69032757073426
 30
0.0
  0
SPLINE
  5
122
330
1F
100
AcDbEntity
  8
0
  6
Continuous
 62
     7
370
    25
100
AcDbSpline
210
0.0
220
0.0
230
1.0
 70
     8
 71
     3
 72
    10
 73
     6
 74
     0
 42
0.00000001
 43
0.00000001
 40
0.0
 40
0.0
 40
0.0
 40
0.0
 40
0.5
 40
0.5
 40
1.0
 40
1.0
 40
1.0
 40
1.0
 10
-5.31297495896693
 20
10.0757873844305
 30
0.0
 10
-5.281376556764913
 20
9.982134351969634
 30
0.0
 10
-5.26816707370747
 20
9.880136460777873
 30
0.0
 10
-5.311695557183961
 20
9.6871499391865
 30
0.0
 10
-5.372548316817098
 20
9.598727265600902
 30
0.0
 10
-5.45907763326347
 20
9.54978907589076
 30
0.0
  0
SPLINE
  5
123
330
1F
100
AcDbEntity
  8
0
  6
Continuous
 62
     7
370
    25
100
AcDbSpline
210
0.0
220
0.0
230
1.0
 70
     8
 71
     3
 72
    10
 73
     6
 74
     0
 42
0.00000001
 43
0.00000001
 40
0.0
 40
0.0
 40
0.0
 40
0.0
 40
0.4999999999999999
 40
0.4999999999999999
 40
1.0
 40
1.0
 40
1.0
 40
1.0
 10
-1.63151578800986
 20
11.29643961297724
 30
0.0
 10
-1.704828209755129
 20
11.5334856899217
 30
0.0
 10
-1.817719659499862
 20
11.75663063225554
 30
0.0
 10
-2.07186134302298
 20
12.18274985654684
 30
0.0
 10
-2.21622486880711
 20
12.38527853944116
 30
0.0
 10
-2.372073926075605
 20
12.5782854669956
 30
0.0
  0
SPLINE
  5
124
330
1F
100
AcDbEntity
  8
0
  6
Continuous
 62
     7
370
    25
100
AcDbSpline
210
0.0
220
0.0
230
1.0
 70
     8
 71
     3
 72
    10
 73
     6
 74
     0
 42
0.00000001
 43
0.00000001
 40
0.0
 40
0.0
 40
0.0
 40
0.0
 40
0.5
 40
0.5
 40
1.0
 40
1.0
 40
1.0
 40
1.0
 10
-2.94905224613577
 20
12.45564493912546
 30
0.0
 10
-3.012924454677766
 20
12.21593481478499
 30
0.0
 10
-3.062431261299809
 20
11.97219772062419
 30
0.0
 10
-3.121282939041689
 20
11.47954970363683
 30
0.0
 10
-3.133653185398471
 20
11.22977956587061
 30
0.0
 10
-3.104212089681985
 20
10.9834083507097
 30
0.0
  0
SPLINE
  5
127
330
1F
100
AcDbEntity
  8
0
  6
Continuous
 62
     7
370
    25
100
AcDbSpline
210
0.0
220
0.0
230
1.0
 70
     8
 71
     3
 72
    10
 73
     6
 74
     0
 42
0.00000001
 43
0.00000001
 40
0.0
 40
0.0
 40
0.0
 40
0.0
 40
0.5
 40
0.5
 40
1.0
 40
1.0
 40
1.0
 40
1.0
 10
-1.196738602389766
 20
10.93470697904384
 30
0.0
 10
-1.295507436092036
 20
10.92343815009517
 30
0.0
 10
-1.39671189629175
 20
10.95920524104031
 30
0.0
 10
-1.545361810446233
 20
11.08974921605094
 30
0.0
 10
-1.594627970373305
 20
11.18003158274699
 30
0.0
 10
-1.624112197309735
 20
11.274371552393
 30
0.0
  0
SPLINE
  5
128
330
1F
100
AcDbEntity
  8
0
  6
Continuous
 62
     7
370
    25
100
AcDbSpline
210
0.0
220
0.0
230
1.0
 70
     8
 71
     3
 72
    10
 73
     6
 74
     0
 42
0.00000001
 43
0.00000001
 40
0.0
 40
0.0
 40
0.0
 40
0.0
 40
0.5
 40
0.5
 40
1.0
 40
1.0
 40
1.0
 40
1.0
 10
-3.101999717455095
 20
10.96023686257586
 30
0.0
 10
-3.090563376483307
 20
10.86206069634384
 30
0.0
 10
-3.098849106341278
 20
10.75954529783746
 30
0.0
 10
-3.181550542026476
 20
10.57982607536719
 30
0.0
 10
-3.259457630431482
 20
10.50598764949521
 30
0.0
 10
-3.354270895474829
 20
10.47610933313368
 30
0.0
  0
SPLINE
  5
129
330
1F
100
AcDbEntity
  8
0
  6
Continuous
 62
     7
370
    25
100
AcDbSpline
210
0.0
220
0.0
230
1.0
 70
     8
 71
     3
 72
    10
 73
     6
 74
     0
 42
0.00000001
 43
0.00000001
 40
0.0
 40
0.0
 40
0.0
 40
0.0
 40
0.5
 40
0.5
 40
1.0
 40
1.0
 40
1.0
 40
1.0
 10
-6.085139764099461
 20
9.656213841229
 30
0.0
 10
-6.248529319564277
 20
9.842947359757146
 30
0.0
 10
-6.442422015449507
 20
10.00088331892103
 30
0.0
 10
-6.847910298867999
 20
10.28679386546475
 30
0.0
 10
-7.062168778704534
 20
10.41309508790568
 30
0.0
 10
-7.28304696685374
 20
10.52602616748612
 30
0.0
  0
SPLINE
  5
12A
330
1F
100
AcDbEntity
  8
0
  6
Continuous
 62
     7
370
    25
100
AcDbSpline
210
0.0
220
0.0
230
1.0
 70
     8
 71
     3
 72
    10
 73
     6
 74
     0
 42
0.00000001
 43
0.00000001
 40
0.0
 40
0.0
 40
0.0
 40
0.0
 40
0.5
 40
0.5
 40
1.0
 40
1.0
 40
1.0
 40
1.0
 10
-7.760260493692011
 20
10.1793102452987
 30
0.0
 10
-7.721111768390023
 20
9.93434498236809
 30
0.0
 10
-7.667201679229571
 20
9.691543834803845
 30
0.0
 10
-7.52058736145794
 20
9.217550342824309
 30
0.0
 10
-7.430297476451483
 20
8.984342535536072
 30
0.0
 10
-7.3031934961866
 20
8.77124600347207
 30
0.0
  0
SPLINE
  5
12D
330
1F
100
AcDbEntity
  8
0
  6
Continuous
 62
     7
370
    25
100
AcDbSpline
210
0.0
220
0.0
230
1.0
 70
     8
 71
     3
 72
    10
 73
     6
 74
     0
 42
0.00000001
 43
0.00000001
 40
0.0
 40
0.0
 40
0.0
 40
0.0
 40
0.5
 40
0.5
 40
1.0
 40
1.0
 40
1.0
 40
1.0
 10
-5.54082112387255
 20
9.50259444958311
 30
0.0
 10
-5.626467497599943
 20
9.452126958223518
 30
0.0
 10
-5.733470159012174
 20
9.443638259283627
 30
0.0
 10
-5.922365631036562
 20
9.50243474760049
 30
0.0
 10
-6.004093654412348
 20
9.564873441094962
 30
0.0
 10
-6.06940035856388
 20
9.639064976351339
 30
0.0
  0
SPLINE
  5
12E
330
1F
100
AcDbEntity
  8
0
  6
Continuous
 62
     7
370
    25
100
AcDbSpline
210
0.0
220
0.0
230
1.0
 70
     8
 71
     3
 72
    10
 73
     6
 74
     0
 42
0.00000001
 43
0.00000001
 40
0.0
 40
0.0
 40
0.0
 40
0.0
 40
0.5
 40
0.5
 40
1.0
 40
1.0
 40
1.0
 40
1.0
 10
-7.291747700289489
 20
8.75097764859341
 30
0.0
 10
-7.24136823865942
 20
8.665940836819344
 30
0.0
 10
-7.207240860482324
 20
8.568918250227526
 30
0.0
 10
-7.209693988149322
 20
8.371098866560596
 30
0.0
 10
-7.250832861410704
 20
8.271956440396131
 30
0.0
 10
-7.32529648291766
 20
8.206097211059232
 30
0.0
  0
SPLINE
  5
12F
330
1F
100
AcDbEntity
  8
0
  6
Continuous
 62
     7
370
    25
100
AcDbSpline
210
0.0
220
0.0
230
1.0
 70
     8
 71
     3
 72
    10
 73
     6
 74
     0
 42
0.00000001
 43
0.00000001
 40
0.0
 40
0.0
 40
0.0
 40
0.0
 40
0.5
 40
0.5
 40
1.0
 40
1.0
 40
1.0
 40
1.0
 10
-9.486587793217
 20
6.34634097238348
 30
0.0
 10
-9.71180294391398
 20
6.450474010721056
 30
0.0
 10
-9.953171077361299
 20
6.515892424572402
 30
0.0
 10
-10.43989335272672
 20
6.612157762455308
 30
0.0
 10
-10.68699954897458
 20
6.640392895672037
 30
0.0
 10
-10.9347150226583
 20
6.653721317672621
 30
0.0
  0
SPLINE
  5
130
330
1F
100
AcDbEntity
  8
0
  6
Continuous
 62
     7
370
    25
100
AcDbSpline
210
0.0
220
0.0
230
1.0
 70
     8
 71
     3
 72
    10
 73
     6
 74
     0
 42
0.00000001
 43
0.00000001
 40
0.0
 40
0.0
 40
0.0
 40
0.0
 40
0.5
 40
0.5
 40
1.0
 40
1.0
 40
1.0
 40
1.0
 10
-11.22964920213556
 20
6.14288033392937
 30
0.0
 10
-11.09424871324931
 20
5.93501665180922
 30
0.0
 10
-10.94624327247997
 20
5.735133975034225
 30
0.0
 10
-10.61951390668679
 20
5.361752788921453
 30
0.0
 10
-10.44217583169256
 20
5.185431060617718
 30
0.0
 10
-10.23938639977052
 20
5.04245553796577
 30
0.0
  0
SPLINE
  5
133
330
1F
100
AcDbEntity
  8
0
  6
Continuous
 62
     7
370
    25
100
AcDbSpline
210
0.0
220
0.0
230
1.0
 70
     8
 71
     3
 72
    10
 73
     6
 74
     0
 42
0.00000001
 43
0.00000001
 40
0.0
 40
0.0
 40
0.0
 40
0.0
 40
0.5
 40
0.5
 40
1.0
 40
1.0
 40
1.0
 40
1.0
 10
-8.926845336258111
 20
6.427397011429029
 30
0.0
 10
-8.984560213920275
 20
6.346457145397377
 30
0.0
 10
-9.078859344298195
 20
6.295180429736554
 30
0.0
 10
-9.275338631017965
 20
6.272062984380333
 30
0.0
 10
-9.375397000124973
 20
6.295861787330254
 30
0.0
 10
-9.46523405905107
 20
6.33707649774232
 30
0.0
  0
SPLINE
  5
134
330
1F
100
AcDbEntity
  8
0
  6
Continuous
 62
     7
370
    25
100
AcDbSpline
210
0.0
220
0.0
230
1.0
 70
     8
 71
     3
 72
    10
 73
     6
 74
     0
 42
0.00000001
 43
0.00000001
 40
0.0
 40
0.0
 40
0.0
 40
0.0
 40
0.5
 40
0.5
 40
1.0
 40
1.0
 40
1.0
 40
1.0
 10
-10.2206862622956
 20
5.028594899033
 30
0.0
 10
-10.14007474660605
 20
4.971401079007763
 30
0.0
 10
-10.06943519411827
 20
4.896647390974804
 30
0.0
 10
-9.991215845707492
 20
4.714932614679926
 30
0.0
 10
-9.988473218903444
 20
4.607628814387447
 30
0.0
 10
-10.02971176023466
 20
4.51717633113987
 30
0.0
  0
SPLINE
  5
135
330
1F
100
AcDbEntity
  8
0
  6
Continuous
 62
     7
370
    25
100
AcDbSpline
210
0.0
220
0.0
230
1.0
 70
     8
 71
     3
 72
    10
 73
     6
 74
     0
 42
0.00000001
 43
0.00000001
 40
0.0
 40
0.0
 40
0.0
 40
0.0
 40
0.5
 40
0.5
 40
1.0
 40
1.0
 40
1.0
 40
1.0
 10
-12.7573295453696
 20
1.044290606507758
 30
0.0
 10
-12.54908926750065
 20
0.9094700242189002
 30
0.0
 10
-12.33257996042036
 20
0.7870673489246807
 30
0.0
 10
-11.88223002219437
 20
0.5788594678191546
 30
0.0
 10
-11.64850712144474
 20
0.4899114471562527
 30
0.0
 10
-11.40509637292896
 20
0.4417787006747265
 30
0.0
  0
SPLINE
  5
137
330
1F
100
AcDbEntity
  8
0
  6
Continuous
 62
     7
370
    25
100
AcDbSpline
210
0.0
220
0.0
230
1.0
 70
     8
 71
     3
 72
    10
 73
     6
 74
     0
 42
0.00000001
 43
0.00000001
 40
0.0
 40
0.0
 40
0.0
 40
0.0
 40
0.5000000000000001
 40
0.5000000000000001
 40
1.0
 40
1.0
 40
1.0
 40
1.0
 10
-11.38237531753104
 20
0.4367224080792795
 30
0.0
 10
-11.2854702111775
 20
0.417260910874791
 30
0.0
 10
-11.19053270474427
 20
0.3777017131775171
 30
0.0
 10
-11.04516571619635
 20
0.2435116799029796
 30
0.0
 10
-10.99901581441727
 20
0.1466003073774875
 30
0.0
 10
-10.99989875713624
 20
0.0471946263077593
 30
0.0
  0
SPLINE
  5
138
330
1F
100
AcDbEntity
  8
0
  6
Continuous
 62
     7
370
    25
100
AcDbSpline
210
0.0
220
0.0
230
1.0
 70
     8
 71
     3
 72
    10
 73
     6
 74
     0
 42
0.00000001
 43
0.00000001
 40
0.0
 40
0.0
 40
0.0
 40
0.0
 40
0.5
 40
0.5
 40
1.0
 40
1.0
 40
1.0
 40
1.0
 10
-10.7693368921607
 20
2.24084423893012
 30
0.0
 10
-10.78914084708664
 20
2.143427236378859
 30
0.0
 10
-10.85443127010721
 20
2.058228713969188
 30
0.0
 10
-11.02452131789024
 20
1.9571945512574
 30
0.0
 10
-11.12560903170819
 20
1.938238434427406
 30
0.0
 10
-11.2244428017764
 20
1.939349922141
 30
0.0
  0
SPLINE
  5
13A
330
1F
100
AcDbEntity
  8
0
  6
Continuous
 62
     7
370
    25
100
AcDbSpline
210
0.0
220
0.0
230
1.0
 70
     8
 71
     3
 72
    10
 73
     6
 74
     0
 42
0.00000001
 43
0.00000001
 40
0.0
 40
0.0
 40
0.0
 40
0.0
 40
0.5
 40
0.5
 40
1.0
 40
1.0
 40
1.0
 40
1.0
 10
-11.2477186099428
 20
1.939128094715095
 30
0.0
 10
-11.49581761030104
 20
1.942655104514617
 30
0.0
 10
-11.74292643827675
 20
1.904244534990857
 30
0.0
 10
-12.22672400244534
 20
1.794219512749865
 30
0.0
 10
-12.46395100888446
 20
1.71950644570053
 30
0.0
 10
-12.69567151227784
 20
1.63092760487299
 30
0.0
  0
SPLINE
  5
13B
330
1F
100
AcDbEntity
  8
0
  6
Continuous
 62
     7
370
    25
100
AcDbSpline
210
0.0
220
0.0
230
1.0
 70
     8
 71
     3
 72
    10
 73
     6
 74
     0
 42
0.00000001
 43
0.00000001
 40
0.0
 40
0.0
 40
0.0
 40
0.0
 40
0.5
 40
0.5
 40
1.0
 40
1.0
 40
1.0
 40
1.0
 10
-11.06401669669378
 20
-2.80337764695522
 30
0.0
 10
-11.29210097564269
 20
-2.901066517729992
 30
0.0
 10
-11.50222313687654
 20
-3.036664534209109
 30
0.0
 10
-11.89944299584067
 20
-3.333955590682573
 30
0.0
 10
-12.08577210791725
 20
-3.49869828995813
 30
0.0
 10
-12.2614310608697
 20
-3.67386830732132
 30
0.0
  0
SPLINE
  5
13C
330
1F
100
AcDbEntity
  8
0
  6
Continuous
 62
     7
370
    25
100
AcDbSpline
210
0.0
220
0.0
230
1.0
 70
     8
 71
     3
 72
    10
 73
     6
 74
     0
 42
0.00000001
 43
0.00000001
 40
0.0
 40
0.0
 40
0.0
 40
0.0
 40
0.5
 40
0.5
 40
1.0
 40
1.0
 40
1.0
 40
1.0
 10
-12.0791517135087
 20
-4.234866453861355
 30
0.0
 10
-11.83407828250549
 20
-4.273332232834952
 30
0.0
 10
-11.58650153523237
 20
-4.297090372096322
 30
0.0
 10
-11.09040062019364
 20
-4.304123914042243
 30
0.0
 10
-10.84070570653418
 20
-4.290318306224294
 30
0.0
 10
-10.59876157116016
 20
-4.235285687396465
 30
0.0
  0
SPLINE
  5
13F
330
1F
100
AcDbEntity
  8
0
  6
Continuous
 62
     7
370
    25
100
AcDbSpline
210
0.0
220
0.0
230
1.0
 70
     8
 71
     3
 72
    10
 73
     6
 74
     0
 42
0.00000001
 43
0.00000001
 40
0.0
 40
0.0
 40
0.0
 40
0.0
 40
0.5
 40
0.5
 40
1.0
 40
1.0
 40
1.0
 40
1.0
 10
-10.74971226305448
 20
-2.33317085991062
 30
0.0
 10
-10.72818101152424
 20
-2.430220714234686
 30
0.0
 10
-10.75317341990231
 20
-2.534609444864283
 30
0.0
 10
-10.86746411426734
 20
-2.696090600332237
 30
0.0
 10
-10.95210218872402
 20
-2.754523952131342
 30
0.0
 10
-11.04284341321296
 20
-2.79370787343943
 30
0.0
  0
SPLINE
  5
140
330
1F
100
AcDbEntity
  8
0
  6
Continuous
 62
     7
370
    25
100
AcDbSpline
210
0.0
220
0.0
230
1.0
 70
     8
 71
     3
 72
    10
 73
     6
 74
     0
 42
0.00000001
 43
0.00000001
 40
0.0
 40
0.0
 40
0.0
 40
0.0
 40
0.5
 40
0.5
 40
1.0
 40
1.0
 40
1.0
 40
1.0
 10
-10.5759482747319
 20
-4.230663354729865
 30
0.0
 10
-10.479505350958
 20
-4.209027459444788
 30
0.0
 10
-10.37668544792189
 20
-4.206552022140485
 30
0.0
 10
-10.18930609217445
 20
-4.270014636563349
 30
0.0
 10
-10.10772865269661
 20
-4.339776724600009
 30
0.0
 10
-10.06810332798594
 20
-4.43094745816268
 30
0.0
  0
SPLINE
  5
141
330
1F
100
AcDbEntity
  8
0
  6
Continuous
 62
     7
370
    25
100
AcDbSpline
210
0.0
220
0.0
230
1.0
 70
     8
 71
     3
 72
    10
 73
     6
 74
     0
 42
0.00000001
 43
0.00000001
 40
0.0
 40
0.0
 40
0.0
 40
0.0
 40
0.5000000000000008
 40
0.5000000000000008
 40
1.0
 40
1.0
 40
1.0
 40
1.0
 10
-8.96724578315019
 20
-7.06115392558059
 30
0.0
 10
-9.135877496778855
 20
-7.24316738369715
 30
0.0
 10
-9.272680960693636
 20
-7.45250671821309
 30
0.0
 10
-9.514640192209274
 20
-7.885659484450306
 30
0.0
 10
-9.617853413699065
 20
-8.11194630660672
 30
0.0
 10
-9.70707778743295
 20
-8.343419013134
 30
0.0
  0
SPLINE
  5
142
330
1F
100
AcDbEntity
  8
0
  6
Continuous
 62
     7
370
    25
100
AcDbSpline
210
0.0
220
0.0
230
1.0
 70
     8
 71
     3
 72
    10
 73
     6
 74
     0
 42
0.00000001
 43
0.00000001
 40
0.0
 40
0.0
 40
0.0
 40
0.0
 40
0.5
 40
0.5
 40
1.0
 40
1.0
 40
1.0
 40
1.0
 10
-9.312378814733801
 20
-8.7817766318039
 30
0.0
 10
-9.07284765324003
 20
-8.717236524826953
 30
0.0
 10
-8.83701173454076
 20
-8.638242129941382
 30
0.0
 10
-8.38094019783474
 20
-8.44288516942752
 30
0.0
 10
-8.158447790244114
 20
-8.328713048140465
 30
0.0
 10
-7.959804607011701
 20
-8.18003070375425
 30
0.0
  0
SPLINE
  5
145
330
1F
100
AcDbEntity
  8
0
  6
Continuous
 62
     7
370
    25
100
AcDbSpline
210
0.0
220
0.0
230
1.0
 70
     8
 71
     3
 72
    10
 73
     6
 74
     0
 42
0.00000001
 43
0.00000001
 40
0.0
 40
0.0
 40
0.0
 40
0.0
 40
0.5
 40
0.5
 40
1.0
 40
1.0
 40
1.0
 40
1.0
 10
-8.87136472559606
 20
-6.503759520880981
 30
0.0
 10
-8.812221216604465
 20
-6.583661425494973
 30
0.0
 10
-8.79259419588258
 20
-6.689190604476796
 30
0.0
 10
-8.831323637475538
 20
-6.883197193910252
 30
0.0
 10
-8.8848773805846
 20
-6.971004123302038
 30
0.0
 10
-8.95183607742203
 20
-7.04370819766293
 30
0.0
  0
SPLINE
  5
146
330
1F
100
AcDbEntity
  8
0
  6
Continuous
 62
     7
370
    25
100
AcDbSpline
210
0.0
220
0.0
230
1.0
 70
     8
 71
     3
 72
    10
 73
     6
 74
     0
 42
0.00000001
 43
0.00000001
 40
0.0
 40
0.0
 40
0.0
 40
0.0
 40
0.5
 40
0.5
 40
1.0
 40
1.0
 40
1.0
 40
1.0
 10
-7.940843695757779
 20
-8.16652898913623
 30
0.0
 10
-7.861538812240591
 20
-8.107536744212323
 30
0.0
 10
-7.768615007925968
 20
-8.06345469750501
 30
0.0
 10
-7.571622877875742
 20
-8.045216630502708
 30
0.0
 10
-7.468723381092667
 20
-8.075766935260347
 30
0.0
 10
-7.39544136757957
 20
-8.14293847322285
 30
0.0
  0
SPLINE
  5
147
330
1F
100
AcDbEntity
  8
0
  6
Continuous
 62
     7
370
    25
100
AcDbSpline
210
0.0
220
0.0
230
1.0
 70
     8
 71
     3
 72
    10
 73
     6
 74
     0
 42
0.00000001
 43
0.00000001
 40
0.0
 40
0.0
 40
0.0
 40
0.0
 40
0.5
 40
0.5
 40
1.0
 40
1.0
 40
1.0
 40
1.0
 10
-5.31995660882946
 20
-10.0979925419035
 30
0.0
 10
-5.399977801880449
 20
-10.33285880691314
 30
0.0
 10
-5.43980800674485
 20
-10.57974278673995
 30
0.0
 10
-5.484669661552336
 20
-11.07386121438916
 30
0.0
 10
-5.486920488796891
 20
-11.32256511212493
 30
0.0
 10
-5.47428257851582
 20
-11.57031677399362
 30
0.0
  0
SPLINE
  5
148
330
1F
100
AcDbEntity
  8
0
  6
Continuous
 62
     7
370
    25
100
AcDbSpline
210
0.0
220
0.0
230
1.0
 70
     8
 71
     3
 72
    10
 73
     6
 74
     0
 42
0.00000001
 43
0.00000001
 40
0.0
 40
0.0
 40
0.0
 40
0.0
 40
0.5
 40
0.5
 40
1.0
 40
1.0
 40
1.0
 40
1.0
 10
-4.93541101858581
 20
-11.81023785017142
 30
0.0
 10
-4.742839240494744
 20
-11.65385142806912
 30
0.0
 10
-4.559522323215745
 20
-11.48576334755347
 30
0.0
 10
-4.2223390768188
 20
-11.12179487781494
 30
0.0
 10
-4.065520133849557
 20
-10.92699764005043
 30
0.0
 10
-3.944525113756195
 20
-10.71037409818694
 30
0.0
  0
SPLINE
  5
14B
330
1F
100
AcDbEntity
  8
0
  6
Continuous
 62
     7
370
    25
100
AcDbSpline
210
0.0
220
0.0
230
1.0
 70
     8
 71
     3
 72
    10
 73
     6
 74
     0
 42
0.00000001
 43
0.00000001
 40
0.0
 40
0.0
 40
0.0
 40
0.0
 40
0.5
 40
0.5
 40
1.0
 40
1.0
 40
1.0
 40
1.0
 10
-5.45907763326366
 20
-9.54978907589065
 30
0.0
 10
-5.37254831681729
 20
-9.59872726560081
 30
0.0
 10
-5.311695557184152
 20
-9.687149939186389
 30
0.0
 10
-5.268167073707672
 20
-9.880136460777788
 30
0.0
 10
-5.28137655676511
 20
-9.982134351969533
 30
0.0
 10
-5.31297495896713
 20
-10.0757873844304
 30
0.0
  0
SPLINE
  5
14C
330
1F
100
AcDbEntity
  8
0
  6
Continuous
 62
     7
370
    25
100
AcDbSpline
210
0.0
220
0.0
230
1.0
 70
     8
 71
     3
 72
    10
 73
     6
 74
     0
 42
0.00000001
 43
0.00000001
 40
0.0
 40
0.0
 40
0.0
 40
0.0
 40
0.5
 40
0.5
 40
1.0
 40
1.0
 40
1.0
 40
1.0
 10
-3.932695101486915
 20
-10.69032757073418
 30
0.0
 10
-3.884240793048752
 20
-10.60417927124649
 30
0.0
 10
-3.817280457407923
 20
-10.52611280148469
 30
0.0
 10
-3.644737281957888
 20
-10.42932758052958
 30
0.0
 10
-3.538307985675945
 20
-10.41538367677479
 30
0.0
 10
-3.444040409243045
 20
-10.44694144998912
 30
0.0
  0
SPLINE
  5
14D
330
1F
100
AcDbEntity
  8
0
  6
Continuous
 62
     7
370
    25
100
AcDbSpline
210
0.0
220
0.0
230
1.0
 70
     8
 71
     3
 72
    10
 73
     6
 74
     0
 42
0.00000001
 43
0.00000001
 40
0.0
 40
0.0
 40
0.0
 40
0.0
 40
0.5
 40
0.5
 40
1.0
 40
1.0
 40
1.0
 40
1.0
 10
-0.7527986065535031
 20
-11.38879651034902
 30
0.0
 10
-0.7303728877786047
 20
-11.63590507133858
 30
0.0
 10
-0.6663428293254967
 20
-11.87764521349362
 30
0.0
 10
-0.5063499197532667
 20
-12.34729173748928
 30
0.0
 10
-0.4072491642739767
 20
-12.575409547481
 30
0.0
 10
-0.2949341794772619
 20
-12.79660165160172
 30
0.0
  0
SPLINE
  5
14E
330
1F
100
AcDbEntity
  8
0
  6
Continuous
 62
     7
370
    25
100
AcDbSpline
210
0.0
220
0.0
230
1.0
 70
     8
 71
     3
 72
    10
 73
     6
 74
     0
 42
0.00000001
 43
0.00000001
 40
0.0
 40
0.0
 40
0.0
 40
0.0
 40
0.5
 40
0.5
 40
1.0
 40
1.0
 40
1.0
 40
1.0
 10
0.2949341794772645
 20
-12.79660165160172
 30
0.0
 10
0.4072491642739314
 20
-12.57540954748106
 30
0.0
 10
0.5063499197532698
 20
-12.34729173748928
 30
0.0
 10
0.6663428293254993
 20
-11.87764521349363
 30
0.0
 10
0.7303728877786074
 20
-11.63590507133858
 30
0.0
 10
0.7527986065535061
 20
-11.38879651034902
 30
0.0
  0
SPLINE
  5
151
330
1F
100
AcDbEntity
  8
0
  6
Continuous
 62
     7
370
    25
100
AcDbSpline
210
0.0
220
0.0
230
1.0
 70
     8
 71
     3
 72
    10
 73
     6
 74
     0
 42
0.00000001
 43
0.00000001
 40
0.0
 40
0.0
 40
0.0
 40
0.0
 40
0.5
 40
0.5
 40
1.0
 40
1.0
 40
1.0
 40
1.0
 10
-1.102866423976542
 20
-10.9445733425687
 30
0.0
 10
-1.003913004983134
 20
-10.95408595978457
 30
0.0
 10
-0.9123565014092625
 20
-11.01011304441626
 30
0.0
 10
-0.7940965631002985
 20
-11.1687103753549
 30
0.0
 10
-0.7646777464810802
 20
-11.2672628663378
 30
0.0
 10
-0.7554522032445011
 20
-11.3656713967751
 30
0.0
  0
SPLINE
  5
152
330
1F
100
AcDbEntity
  8
0
  6
Continuous
 62
     7
370
    25
100
AcDbSpline
210
0.0
220
0.0
230
1.0
 70
     8
 71
     3
 72
    10
 73
     6
 74
     0
 42
0.00000001
 43
0.00000001
 40
0.0
 40
0.0
 40
0.0
 40
0.0
 40
0.5
 40
0.5
 40
1.0
 40
1.0
 40
1.0
 40
1.0
 10
0.755452203244503
 20
-11.3656713967751
 30
0.0
 10
0.7646777464810866
 20
-11.2672628663378
 30
0.0
 10
0.794096563100302
 20
-11.1687103753549
 30
0.0
 10
0.9123565014092639
 20
-11.01011304441626
 30
0.0
 10
1.003913004983136
 20
-10.95408595978458
 30
0.0
 10
1.102866423976544
 20
-10.9445733425687
 30
0.0
  0
SPLINE
  5
153
330
1F
100
AcDbEntity
  8
0
  6
Continuous
 62
     7
370
    25
100
AcDbSpline
210
0.0
220
0.0
230
1.0
 70
     8
 71
     3
 72
    10
 73
     6
 74
     0
 42
0.00000001
 43
0.00000001
 40
0.0
 40
0.0
 40
0.0
 40
0.0
 40
0.5
 40
0.5
 40
1.0
 40
1.0
 40
1.0
 40
1.0
 10
3.944525113756056
 20
-10.710374098187
 30
0.0
 10
4.065520133849414
 20
-10.92699764005049
 30
0.0
 10
4.222339076818646
 20
-11.12179487781498
 30
0.0
 10
4.559522323215603
 20
-11.48576334755352
 30
0.0
 10
4.742839240494575
 20
-11.65385142806842
 30
0.0
 10
4.935411018585659
 20
-11.8102378501715
 30
0.0
  0
SPLINE
  5
154
330
1F
100
AcDbEntity
  8
0
  6
Continuous
 62
     7
370
    25
100
AcDbSpline
210
0.0
220
0.0
230
1.0
 70
     8
 71
     3
 72
    10
 73
     6
 74
     0
 42
0.00000001
 43
0.00000001
 40
0.0
 40
0.0
 40
0.0
 40
0.0
 40
0.5
 40
0.5
 40
1.0
 40
1.0
 40
1.0
 40
1.0
 10
5.47428257851566
 20
-11.5703167739937
 30
0.0
 10
5.486920488797075
 20
-11.32256511212434
 30
0.0
 10
5.484669661552181
 20
-11.07386121438923
 30
0.0
 10
5.439808006744711
 20
-10.57974278674002
 30
0.0
 10
5.399977801880342
 20
-10.33285880691327
 30
0.0
 10
5.31995660882932
 20
-10.09799254190356
 30
0.0
  0
LINE
  5
15A
330
1F
100
AcDbEntity
  8
0
  6
Continuous
 62
     7
370
    25
100
AcDbLine
 10
-11.0
 20
0.0
 30
0.0
 11
-10.9998987571
 21
-0.0471946263
 31
0.0
  0
LINE
  5
15B
330
1F
100
AcDbEntity
  8
0
  6
Continuous
 62
     7
370
    25
100
AcDbLine
 10
-10.9998987571
 20
0.0471946263
 30
0.0
 11
-11.0
 21
0.0
 31
0.0
  0
LINE
  5
15C
330
1F
100
AcDbEntity
  8
0
  6
Continuous
 62
     7
370
    25
100
AcDbLine
 10
-10.7497122631
 20
2.3331708599
 30
0.0
 11
-10.7693368922
 21
2.2408442389
 31
0.0
  0
LINE
  5
15D
330
1F
100
AcDbEntity
  8
0
  6
Continuous
 62
     7
370
    25
100
AcDbLine
 10
-10.0297117602
 20
4.5171763311
 30
0.0
 11
-10.068103328
 21
4.4309474582
 31
0.0
  0
LINE
  5
15E
330
1F
100
AcDbEntity
  8
0
  6
Continuous
 62
     7
370
    25
100
AcDbLine
 10
-8.8713647256
 20
6.5037595209
 30
0.0
 11
-8.9268453363
 21
6.4273970114
 31
0.0
  0
LINE
  5
15F
330
1F
100
AcDbEntity
  8
0
  6
Continuous
 62
     7
370
    25
100
AcDbLine
 10
-7.3252964829
 20
8.2060972111
 30
0.0
 11
-7.3954413676
 21
8.1429384732
 31
0.0
  0
LINE
  5
160
330
1F
100
AcDbEntity
  8
0
  6
Continuous
 62
     7
370
    25
100
AcDbLine
 10
-5.4590776333
 20
9.5497890759
 30
0.0
 11
-5.5408211239
 21
9.5025944496
 31
0.0
  0
LINE
  5
161
330
1F
100
AcDbEntity
  8
0
  6
Continuous
 62
     7
370
    25
100
AcDbLine
 10
-3.3542708955
 20
10.4761093331
 30
0.0
 11
-3.4440404092
 21
10.44694145
 31
0.0
  0
LINE
  5
162
330
1F
100
AcDbEntity
  8
0
  6
Continuous
 62
     7
370
    25
100
AcDbLine
 10
-1.102866424
 20
10.9445733426
 30
0.0
 11
-1.1967386024
 21
10.934706979
 31
0.0
  0
LINE
  5
163
330
1F
100
AcDbEntity
  8
0
  6
Continuous
 62
     7
370
    25
100
AcDbLine
 10
-0.7527986066
 20
11.3887965103
 30
0.0
 11
-0.7554522032
 21
11.3656713968
 31
0.0
  0
LINE
  5
164
330
1F
100
AcDbEntity
  8
0
  6
Continuous
 62
     7
370
    25
100
AcDbLine
 10
0.7554522032
 20
11.3656713968
 30
0.0
 11
0.7527986066
 21
11.3887965103
 31
0.0
  0
LINE
  5
165
330
1F
100
AcDbEntity
  8
0
  6
Continuous
 62
     7
370
    25
100
AcDbLine
 10
1.1967386024
 20
10.934706979
 30
0.0
 11
1.102866424
 21
10.9445733426
 31
0.0
  0
LINE
  5
166
330
1F
100
AcDbEntity
  8
0
  6
Continuous
 62
     7
370
    25
100
AcDbLine
 10
3.4440404092
 20
10.44694145
 30
0.0
 11
3.3542708955
 21
10.4761093331
 31
0.0
  0
LINE
  5
167
330
1F
100
AcDbEntity
  8
0
  6
Continuous
 62
     7
370
    25
100
AcDbLine
 10
3.9445251138
 20
10.7103740982
 30
0.0
 11
3.9326951015
 21
10.6903275707
 31
0.0
  0
LINE
  5
168
330
1F
100
AcDbEntity
  8
0
  6
Continuous
 62
     7
370
    25
100
AcDbLine
 10
5.312974959
 20
10.0757873844
 30
0.0
 11
5.3199566088
 21
10.0979925419
 31
0.0
  0
LINE
  5
169
330
1F
100
AcDbEntity
  8
0
  6
Continuous
 62
     7
370
    25
100
AcDbLine
 10
5.5408211239
 20
9.5025944496
 30
0.0
 11
5.4590776333
 21
9.5497890759
 31
0.0
  0
LINE
  5
16A
330
1F
100
AcDbEntity
  8
0
  6
Continuous
 62
     7
370
    25
100
AcDbLine
 10
7.3954413676
 20
8.1429384732
 30
0.0
 11
7.3252964829
 21
8.2060972111
 31
0.0
  0
LINE
  5
16B
330
1F
100
AcDbEntity
  8
0
  6
Continuous
 62
     7
370
    25
100
AcDbLine
 10
7.959804607
 20
8.1800307038
 30
0.0
 11
7.9408436958
 21
8.1665289891
 31
0.0
  0
LINE
  5
16C
330
1F
100
AcDbEntity
  8
0
  6
Continuous
 62
     7
370
    25
100
AcDbLine
 10
8.9518360774
 20
7.0437081977
 30
0.0
 11
8.9672457832
 21
7.0611539256
 31
0.0
  0
LINE
  5
16D
330
1F
100
AcDbEntity
  8
0
  6
Continuous
 62
     7
370
    25
100
AcDbLine
 10
8.9268453363
 20
6.4273970114
 30
0.0
 11
8.8713647256
 21
6.5037595209
 31
0.0
  0
LINE
  5
16E
330
1F
100
AcDbEntity
  8
0
  6
Continuous
 62
     7
370
    25
100
AcDbLine
 10
10.068103328
 20
4.4309474582
 30
0.0
 11
10.0297117602
 21
4.5171763311
 31
0.0
  0
LINE
  5
16F
330
1F
100
AcDbEntity
  8
0
  6
Continuous
 62
     7
370
    25
100
AcDbLine
 10
10.5987615712
 20
4.2352856874
 30
0.0
 11
10.5759482747
 21
4.2306633547
 31
0.0
  0
LINE
  5
170
330
1F
100
AcDbEntity
  8
0
  6
Continuous
 62
     7
370
    25
100
AcDbLine
 10
11.0428434132
 20
2.7937078734
 30
0.0
 11
11.0640166967
 21
2.803377647
 31
0.0
  0
LINE
  5
171
330
1F
100
AcDbEntity
  8
0
  6
Continuous
 62
     7
370
    25
100
AcDbLine
 10
10.7693368922
 20
2.2408442389
 30
0.0
 11
10.7497122631
 21
2.3331708599
 31
0.0
  0
LINE
  5
172
330
1F
100
AcDbEntity
  8
0
  6
Continuous
 62
     7
370
    25
100
AcDbLine
 10
10.9998987571
 20
-0.0471946263
 30
0.0
 11
10.9998987571
 21
0.0471946263
 31
0.0
  0
LINE
  5
173
330
1F
100
AcDbEntity
  8
0
  6
Continuous
 62
     7
370
    25
100
AcDbLine
 10
11.4050963729
 20
-0.4417787007
 30
0.0
 11
11.3823753175
 21
-0.4367224081
 31
0.0
  0
LINE
  5
174
330
1F
100
AcDbEntity
  8
0
  6
Continuous
 62
     7
370
    25
100
AcDbLine
 10
11.2244428018
 20
-1.9393499221
 30
0.0
 11
11.2477186099
 21
-1.9391280947
 31
0.0
  0
LINE
  5
175
330
1F
100
AcDbEntity
  8
0
  6
Continuous
 62
     7
370
    25
100
AcDbLine
 10
10.7497122631
 20
-2.3331708599
 30
0.0
 11
10.7693368922
 21
-2.2408442389
 31
0.0
  0
LINE
  5
176
330
1F
100
AcDbEntity
  8
0
  6
Continuous
 62
     7
370
    25
100
AcDbLine
 10
10.0297117602
 20
-4.5171763311
 30
0.0
 11
10.068103328
 21
-4.4309474582
 31
0.0
  0
LINE
  5
177
330
1F
100
AcDbEntity
  8
0
  6
Continuous
 62
     7
370
    25
100
AcDbLine
 10
8.8713647256
 20
-6.5037595209
 30
0.0
 11
8.9268453363
 21
-6.4273970114
 31
0.0
  0
LINE
  5
178
330
1F
100
AcDbEntity
  8
0
  6
Continuous
 62
     7
370
    25
100
AcDbLine
 10
7.3252964829
 20
-8.2060972111
 30
0.0
 11
7.3954413676
 21
-8.1429384732
 31
0.0
  0
LINE
  5
179
330
1F
100
AcDbEntity
  8
0
  6
Continuous
 62
     7
370
    25
100
AcDbLine
 10
5.4590776333
 20
-9.5497890759
 30
0.0
 11
5.5408211239
 21
-9.5025944496
 31
0.0
  0
LINE
  5
17A
330
1F
100
AcDbEntity
  8
0
  6
Continuous
 62
     7
370
    25
100
AcDbLine
 10
3.3542708955
 20
-10.4761093331
 30
0.0
 11
3.4440404092
 21
-10.44694145
 31
0.0
  0
LINE
  5
17B
330
1F
100
AcDbEntity
  8
0
  6
Continuous
 62
     7
370
    25
100
AcDbLine
 10
1.102866424
 20
-10.9445733426
 30
0.0
 11
1.1967386024
 21
-10.934706979
 31
0.0
  0
LINE
  5
17C
330
1F
100
AcDbEntity
  8
0
  6
Continuous
 62
     7
370
    25
100
AcDbLine
 10
-1.1967386024
 20
-10.934706979
 30
0.0
 11
-1.102866424
 21
-10.9445733426
 31
0.0
  0
LINE
  5
17D
330
1F
100
AcDbEntity
  8
0
  6
Continuous
 62
     7
370
    25
100
AcDbLine
 10
-3.4440404092
 20
-10.44694145
 30
0.0
 11
-3.3542708955
 21
-10.4761093331
 31
0.0
  0
LINE
  5
17E
330
1F
100
AcDbEntity
  8
0
  6
Continuous
 62
     7
370
    25
100
AcDbLine
 10
-5.5408211239
 20
-9.5025944496
 30
0.0
 11
-5.4590776333
 21
-9.5497890759
 31
0.0
  0
LINE
  5
17F
330
1F
100
AcDbEntity
  8
0
  6
Continuous
 62
     7
370
    25
100
AcDbLine
 10
-7.3954413676
 20
-8.1429384732
 30
0.0
 11
-7.3252964829
 21
-8.2060972111
 31
0.0
  0
LINE
  5
180
330
1F
100
AcDbEntity
  8
0
  6
Continuous
 62
     7
370
    25
100
AcDbLine
 10
-8.9268453363
 20
-6.4273970114
 30
0.0
 11
-8.8713647256
 21
-6.5037595209
 31
0.0
  0
LINE
  5
181
330
1F
100
AcDbEntity
  8
0
  6
Continuous
 62
     7
370
    25
100
AcDbLine
 10
-10.068103328
 20
-4.4309474582
 30
0.0
 11
-10.0297117602
 21
-4.5171763311
 31
0.0
  0
LINE
  5
182
330
1F
100
AcDbEntity
  8
0
  6
Continuous
 62
     7
370
    25
100
AcDbLine
 10
-10.7693368922
 20
-2.2408442389
 30
0.0
 11
-10.7497122631
 21
-2.3331708599
 31
0.0
  0
LINE
  5
183
330
1F
100
AcDbEntity
  8
0
  6
Continuous
 62
     7
370
    25
100
AcDbLine
 10
5.3199566088
 20
-10.0979925419
 30
0.0
 11
5.312974959
 21
-10.0757873844
 31
0.0
  0
LINE
  5
184
330
1F
100
AcDbEntity
  8
0
  6
Continuous
 62
     7
370
    25
100
AcDbLine
 10
7.9408436958
 20
-8.1665289891
 30
0.0
 11
7.959804607
 21
-8.1800307038
 31
0.0
  0
LINE
  5
185
330
1F
100
AcDbEntity
  8
0
  6
Continuous
 62
     7
370
    25
100
AcDbLine
 10
8.9672457832
 20
-7.0611539256
 30
0.0
 11
8.9518360774
 21
-7.0437081977
 31
0.0
  0
LINE
  5
186
330
1F
100
AcDbEntity
  8
0
  6
Continuous
 62
     7
370
    25
100
AcDbLine
 10
10.5759482747
 20
-4.2306633547
 30
0.0
 11
10.5987615712
 21
-4.2352856874
 31
0.0
  0
LINE
  5
187
330
1F
100
AcDbEntity
  8
0
  6
Continuous
 62
     7
370
    25
100
AcDbLine
 10
11.0640166967
 20
-2.803377647
 30
0.0
 11
11.0428434132
 21
-2.7937078734
 31
0.0
  0
LINE
  5
188
330
1F
100
AcDbEntity
  8
0
  6
Continuous
 62
     7
370
    25
100
AcDbLine
 10
11.3823753175
 20
0.4367224081
 30
0.0
 11
11.4050963729
 21
0.4417787007
 31
0.0
  0
LINE
  5
189
330
1F
100
AcDbEntity
  8
0
  6
Continuous
 62
     7
370
    25
100
AcDbLine
 10
11.2477186099
 20
1.9391280947
 30
0.0
 11
11.2244428018
 21
1.9393499221
 31
0.0
  0
LINE
  5
18A
330
1F
100
AcDbEntity
  8
0
  6
Continuous
 62
     7
370
    25
100
AcDbLine
 10
10.2206862623
 20
5.028594899
 30
0.0
 11
10.2393863998
 21
5.042455538
 31
0.0
  0
LINE
  5
18B
330
1F
100
AcDbEntity
  8
0
  6
Continuous
 62
     7
370
    25
100
AcDbLine
 10
9.4865877932
 20
6.3463409724
 30
0.0
 11
9.4652340591
 21
6.3370764977
 31
0.0
  0
LINE
  5
18C
330
1F
100
AcDbEntity
  8
0
  6
Continuous
 62
     7
370
    25
100
AcDbLine
 10
7.2917477003
 20
8.7509776486
 30
0.0
 11
7.3031934962
 21
8.7712460035
 31
0.0
  0
LINE
  5
18D
330
1F
100
AcDbEntity
  8
0
  6
Continuous
 62
     7
370
    25
100
AcDbLine
 10
6.0851397641
 20
9.6562138412
 30
0.0
 11
6.0694003586
 21
9.6390649764
 31
0.0
  0
LINE
  5
18E
330
1F
100
AcDbEntity
  8
0
  6
Continuous
 62
     7
370
    25
100
AcDbLine
 10
1.631515788
 20
11.296439613
 30
0.0
 11
1.6241121973
 21
11.2743715524
 31
0.0
  0
LINE
  5
18F
330
1F
100
AcDbEntity
  8
0
  6
Continuous
 62
     7
370
    25
100
AcDbLine
 10
3.1019997175
 20
10.9602368626
 30
0.0
 11
3.1042120897
 21
10.9834083507
 31
0.0
  0
LINE
  5
190
330
1F
100
AcDbEntity
  8
0
  6
Continuous
 62
     7
370
    25
100
AcDbLine
 10
9.4652340591
 20
-6.3370764977
 30
0.0
 11
9.4865877932
 21
-6.3463409724
 31
0.0
  0
LINE
  5
191
330
1F
100
AcDbEntity
  8
0
  6
Continuous
 62
     7
370
    25
100
AcDbLine
 10
10.2393863998
 20
-5.042455538
 30
0.0
 11
10.2206862623
 21
-5.028594899
 31
0.0
  0
LINE
  5
192
330
1F
100
AcDbEntity
  8
0
  6
Continuous
 62
     7
370
    25
100
AcDbLine
 10
6.0694003586
 20
-9.6390649764
 30
0.0
 11
6.0851397641
 21
-9.6562138412
 31
0.0
  0
LINE
  5
193
330
1F
100
AcDbEntity
  8
0
  6
Continuous
 62
     7
370
    25
100
AcDbLine
 10
7.3031934962
 20
-8.7712460035
 30
0.0
 11
7.2917477003
 21
-8.7509776486
 31
0.0
  0
LINE
  5
194
330
1F
100
AcDbEntity
  8
0
  6
Continuous
 62
     7
370
    25
100
AcDbLine
 10
1.6241121973
 20
-11.2743715524
 30
0.0
 11
1.631515788
 21
-11.296439613
 31
0.0
  0
LINE
  5
195
330
1F
100
AcDbEntity
  8
0
  6
Continuous
 62
     7
370
    25
100
AcDbLine
 10
3.1042120897
 20
-10.9834083507
 30
0.0
 11
3.1019997175
 21
-10.9602368626
 31
0.0
  0
LINE
  5
196
330
1F
100
AcDbEntity
  8
0
  6
Continuous
 62
     7
370
    25
100
AcDbLine
 10
-3.1019997175
 20
-10.9602368626
 30
0.0
 11
-3.1042120897
 21
-10.9834083507
 31
0.0
  0
LINE
  5
197
330
1F
100
AcDbEntity
  8
0
  6
Continuous
 62
     7
370
    25
100
AcDbLine
 10
-1.631515788
 20
-11.296439613
 30
0.0
 11
-1.6241121973
 21
-11.2743715524
 31
0.0
  0
LINE
  5
198
330
1F
100
AcDbEntity
  8
0
  6
Continuous
 62
     7
370
    25
100
AcDbLine
 10
-7.2917477003
 20
-8.7509776486
 30
0.0
 11
-7.3031934962
 21
-8.7712460035
 31
0.0
  0
LINE
  5
199
330
1F
100
AcDbEntity
  8
0
  6
Continuous
 62
     7
370
    25
100
AcDbLine
 10
-6.0851397641
 20
-9.6562138412
 30
0.0
 11
-6.0694003586
 21
-9.6390649764
 31
0.0
  0
LINE
  5
19A
330
1F
100
AcDbEntity
  8
0
  6
Continuous
 62
     7
370
    25
100
AcDbLine
 10
-10.2206862623
 20
-5.028594899
 30
0.0
 11
-10.2393863998
 21
-5.042455538
 31
0.0
  0
LINE
  5
19B
330
1F
100
AcDbEntity
  8
0
  6
Continuous
 62
     7
370
    25
100
AcDbLine
 10
-9.4865877932
 20
-6.3463409724
 30
0.0
 11
-9.4652340591
 21
-6.3370764977
 31
0.0
  0
LINE
  5
19C
330
1F
100
AcDbEntity
  8
0
  6
Continuous
 62
     7
370
    25
100
AcDbLine
 10
-11.3823753175
 20
-0.4367224081
 30
0.0
 11
-11.4050963729
 21
-0.4417787007
 31
0.0
  0
LINE
  5
19D
330
1F
100
AcDbEntity
  8
0
  6
Continuous
 62
     7
370
    25
100
AcDbLine
 10
-11.2477186099
 20
-1.9391280947
 30
0.0
 11
-11.2244428018
 21
-1.9393499221
 31
0.0
  0
LINE
  5
19E
330
1F
100
AcDbEntity
  8
0
  6
Continuous
 62
     7
370
    25
100
AcDbLine
 10
-10.5759482747
 20
4.2306633547
 30
0.0
 11
-10.5987615712
 21
4.2352856874
 31
0.0
  0
LINE
  5
19F
330
1F
100
AcDbEntity
  8
0
  6
Continuous
 62
     7
370
    25
100
AcDbLine
 10
-11.0640166967
 20
2.803377647
 30
0.0
 11
-11.0428434132
 21
2.7937078734
 31
0.0
  0
LINE
  5
1A0
330
1F
100
AcDbEntity
  8
0
  6
Continuous
 62
     7
370
    25
100
AcDbLine
 10
-7.9408436958
 20
8.1665289891
 30
0.0
 11
-7.959804607
 21
8.1800307038
 31
0.0
  0
LINE
  5
1A1
330
1F
100
AcDbEntity
  8
0
  6
Continuous
 62
     7
370
    25
100
AcDbLine
 10
-8.9672457832
 20
7.0611539256
 30
0.0
 11
-8.9518360774
 21
7.0437081977
 31
0.0
  0
LINE
  5
1A2
330
1F
100
AcDbEntity
  8
0
  6
Continuous
 62
     7
370
    25
100
AcDbLine
 10
-3.9326951015
 20
10.6903275707
 30
0.0
 11
-3.9445251138
 21
10.7103740982
 31
0.0
  0
LINE
  5
1A3
330
1F
100
AcDbEntity
  8
0
  6
Continuous
 62
     7
370
    25
100
AcDbLine
 10
-5.3199566088
 20
10.0979925419
 30
0.0
 11
-5.312974959
 21
10.0757873844
 31
0.0
  0
LINE
  5
1A4
330
1F
100
AcDbEntity
  8
0
  6
Continuous
 62
     7
370
    25
100
AcDbLine
 10
-1.6241121973
 20
11.2743715524
 30
0.0
 11
-1.631515788
 21
11.296439613
 31
0.0
  0
LINE
  5
1A5
330
1F
100
AcDbEntity
  8
0
  6
Continuous
 62
     7
370
    25
100
AcDbLine
 10
-3.1042120897
 20
10.9834083507
 30
0.0
 11
-3.1019997175
 21
10.9602368626
 31
0.0
  0
LINE
  5
1A6
330
1F
100
AcDbEntity
  8
0
  6
Continuous
 62
     7
370
    25
100
AcDbLine
 10
-6.0694003586
 20
9.6390649764
 30
0.0
 11
-6.0851397641
 21
9.6562138412
 31
0.0
  0
LINE
  5
1A7
330
1F
100
AcDbEntity
  8
0
  6
Continuous
 62
     7
370
    25
100
AcDbLine
 10
-7.3031934962
 20
8.7712460035
 30
0.0
 11
-7.2917477003
 21
8.7509776486
 31
0.0
  0
LINE
  5
1A8
330
1F
100
AcDbEntity
  8
0
  6
Continuous
 62
     7
370
    25
100
AcDbLine
 10
-9.4652340591
 20
6.3370764977
 30
0.0
 11
-9.4865877932
 21
6.3463409724
 31
0.0
  0
LINE
  5
1A9
330
1F
100
AcDbEntity
  8
0
  6
Continuous
 62
     7
370
    25
100
AcDbLine
 10
-10.2393863998
 20
5.042455538
 30
0.0
 11
-10.2206862623
 21
5.028594899
 31
0.0
  0
LINE
  5
1AA
330
1F
100
AcDbEntity
  8
0
  6
Continuous
 62
     7
370
    25
100
AcDbLine
 10
-11.4050963729
 20
0.4417787007
 30
0.0
 11
-11.3823753175
 21
0.4367224081
 31
0.0
  0
LINE
  5
1AB
330
1F
100
AcDbEntity
  8
0
  6
Continuous
 62
     7
370
    25
100
AcDbLine
 10
-11.2244428018
 20
1.9393499221
 30
0.0
 11
-11.2477186099
 21
1.9391280947
 31
0.0
  0
LINE
  5
1AC
330
1F
100
AcDbEntity
  8
0
  6
Continuous
 62
     7
370
    25
100
AcDbLine
 10
-11.0428434132
 20
-2.7937078734
 30
0.0
 11
-11.0640166967
 21
-2.803377647
 31
0.0
  0
LINE
  5
1AD
330
1F
100
AcDbEntity
  8
0
  6
Continuous
 62
     7
370
    25
100
AcDbLine
 10
-10.5987615712
 20
-4.2352856874
 30
0.0
 11
-10.5759482747
 21
-4.2306633547
 31
0.0
  0
LINE
  5
1AE
330
1F
100
AcDbEntity
  8
0
  6
Continuous
 62
     7
370
    25
100
AcDbLine
 10
-8.9518360774
 20
-7.0437081977
 30
0.0
 11
-8.9672457832
 21
-7.0611539256
 31
0.0
  0
LINE
  5
1AF
330
1F
100
AcDbEntity
  8
0
  6
Continuous
 62
     7
370
    25
100
AcDbLine
 10
-7.959804607
 20
-8.1800307038
 30
0.0
 11
-7.9408436958
 21
-8.1665289891
 31
0.0
  0
LINE
  5
1B0
330
1F
100
AcDbEntity
  8
0
  6
Continuous
 62
     7
370
    25
100
AcDbLine
 10
-5.312974959
 20
-10.0757873844
 30
0.0
 11
-5.3199566088
 21
-10.0979925419
 31
0.0
  0
LINE
  5
1B1
330
1F
100
AcDbEntity
  8
0
  6
Continuous
 62
     7
370
    25
100
AcDbLine
 10
-3.9445251138
 20
-10.7103740982
 30
0.0
 11
-3.9326951015
 21
-10.6903275707
 31
0.0
  0
LINE
  5
1B2
330
1F
100
AcDbEntity
  8
0
  6
Continuous
 62
     7
370
    25
100
AcDbLine
 10
-0.7554522032
 20
-11.3656713968
 30
0.0
 11
-0.7527986066
 21
-11.3887965103
 31
0.0
  0
LINE
  5
1B3
330
1F
100
AcDbEntity
  8
0
  6
Continuous
 62
     7
370
    25
100
AcDbLine
 10
0.7527986066
 20
-11.3887965103
 30
0.0
 11
0.7554522032
 21
-11.3656713968
 31
0.0
  0
LINE
  5
1B4
330
1F
100
AcDbEntity
  8
0
  6
Continuous
 62
     7
370
    25
100
AcDbLine
 10
3.9326951015
 20
-10.6903275707
 30
0.0
 11
3.9445251138
 21
-10.7103740982
 31
0.0
  0
ARC
  5
1B5
330
1F
100
AcDbEntity
  8
0
  6
Continuous
 62
     7
370
    25
100
AcDbCircle
 10
0.0
 20
0.0
 30
0.0
 40
10.1
100
AcDbArc
 50
180.0
 51
0.0
  0
ARC
  5
1B6
330
1F
100
AcDbEntity
  8
0
  6
Continuous
 62
     7
370
    25
100
AcDbCircle
 10
0.0
 20
0.0
 30
0.0
 40
12.79999999996557
100
AcDbArc
 50
76.6796891117
 51
79.3203108883
  0
ARC
  5
1B7
330
1F
100
AcDbEntity
  8
0
  6
Continuous
 62
     7
370
    25
100
AcDbCircle
 10
0.0
 20
0.0
 30
0.0
 40
12.79999999997401
100
AcDbArc
 50
52.6796891117
 51
55.3203108883
  0
ARC
  5
1B8
330
1F
100
AcDbEntity
  8
0
  6
Continuous
 62
     7
370
    25
100
AcDbCircle
 10
0.0
 20
0.0
 30
0.0
 40
12.80000000003442
100
AcDbArc
 50
28.6796891117
 51
31.3203108883
  0
ARC
  5
1B9
330
1F
100
AcDbEntity
  8
0
  6
Continuous
 62
     7
370
    25
100
AcDbCircle
 10
0.0
 20
0.0
 30
0.0
 40
12.79999999996869
100
AcDbArc
 50
4.6796891117
 51
7.3203108883
  0
ARC
  5
1BA
330
1F
100
AcDbEntity
  8
0
  6
Continuous
 62
     7
370
    25
100
AcDbCircle
 10
0.0
 20
0.0
 30
0.0
 40
12.80000000000999
100
AcDbArc
 50
340.6796891117
 51
343.3203108883
  0
ARC
  5
1BB
330
1F
100
AcDbEntity
  8
0
  6
Continuous
 62
     7
370
    25
100
AcDbCircle
 10
0.0
 20
0.0
 30
0.0
 40
12.80000000000641
100
AcDbArc
 50
316.6796891117
 51
319.3203108883
  0
ARC
  5
1BC
330
1F
100
AcDbEntity
  8
0
  6
Continuous
 62
     7
370
    25
100
AcDbCircle
 10
0.0
 20
0.0
 30
0.0
 40
12.79999999997188
100
AcDbArc
 50
292.6796891117
 51
295.3203108883
  0
ARC
  5
1BD
330
1F
100
AcDbEntity
  8
0
  6
Continuous
 62
     7
370
    25
100
AcDbCircle
 10
0.0
 20
0.0
 30
0.0
 40
12.79999999998611
100
AcDbArc
 50
268.6796891117
 51
271.3203108883
  0
ARC
  5
1BE
330
1F
100
AcDbEntity
  8
0
  6
Continuous
 62
     7
370
    25
100
AcDbCircle
 10
0.0
 20
0.0
 30
0.0
 40
12.79999999998498
100
AcDbArc
 50
244.6796891117
 51
247.3203108883
  0
ARC
  5
1BF
330
1F
100
AcDbEntity
  8
0
  6
Continuous
 62
     7
370
    25
100
AcDbCircle
 10
0.0
 20
0.0
 30
0.0
 40
12.79999999997867
100
AcDbArc
 50
220.6796891117
 51
223.3203108883
  0
ARC
  5
1C0
330
1F
100
AcDbEntity
  8
0
  6
Continuous
 62
     7
370
    25
100
AcDbCircle
 10
0.0
 20
0.0
 30
0.0
 40
12.80000000000479
100
AcDbArc
 50
196.6796891117
 51
199.3203108883
  0
ARC
  5
1C1
330
1F
100
AcDbEntity
  8
0
  6
Continuous
 62
     7
370
    25
100
AcDbCircle
 10
0.0000000001
 20
0.0
 30
0.0
 40
12.80000000005387
100
AcDbArc
 50
172.6796891117
 51
175.3203108883
  0
ARC
  5
1C2
330
1F
100
AcDbEntity
  8
0
  6
Continuous
 62
     7
370
    25
100
AcDbCircle
 10
0.0
 20
0.0
 30
0.0
 40
12.79999999998649
100
AcDbArc
 50
148.6796891117
 51
151.3203108883
  0
ARC
  5
1C3
330
1F
100
AcDbEntity
  8
0
  6
Continuous
 62
     7
370
    25
100
AcDbCircle
 10
0.0
 20
0.0
 30
0.0
 40
12.79999999999713
100
AcDbArc
 50
124.6796891117
 51
127.3203108883
  0
ARC
  5
1C4
330
1F
100
AcDbEntity
  8
0
  6
Continuous
 62
     7
370
    25
100
AcDbCircle
 10
0.0
 20
0.0
 30
0.0
 40
12.79999999996657
100
AcDbArc
 50
100.6796891117
 51
103.3203108883
  0
ARC
  5
1C5
330
1F
100
AcDbEntity
  8
0
  6
Continuous
 62
     7
370
    25
100
AcDbCircle
 10
0.0
 20
0.0
 30
0.0
 40
12.79999999997406
100
AcDbArc
 50
112.6796891117
 51
115.3203108883
  0
ARC
  5
1C6
330
1F
100
AcDbEntity
  8
0
  6
Continuous
 62
     7
370
    25
100
AcDbCircle
 10
0.0
 20
0.0
 30
0.0
 40
12.80000000001576
100
AcDbArc
 50
136.6796891117
 51
139.3203108883
  0
ARC
  5
1C7
330
1F
100
AcDbEntity
  8
0
  6
Continuous
 62
     7
370
    25
100
AcDbCircle
 10
0.0
 20
0.0
 30
0.0
 40
12.80000000000723
100
AcDbArc
 50
160.6796891117
 51
163.3203108883
  0
ARC
  5
1C8
330
1F
100
AcDbEntity
  8
0
  6
Continuous
 62
     7
370
    25
100
AcDbCircle
 10
0.0
 20
0.0
 30
0.0
 40
12.79999999999839
100
AcDbArc
 50
184.6796891117
 51
187.3203108883
  0
ARC
  5
1C9
330
1F
100
AcDbEntity
  8
0
  6
Continuous
 62
     7
370
    25
100
AcDbCircle
 10
0.0
 20
0.0
 30
0.0
 40
12.79999999995255
100
AcDbArc
 50
208.6796891117
 51
211.3203108883
  0
ARC
  5
1CA
330
1F
100
AcDbEntity
  8
0
  6
Continuous
 62
     7
370
    25
100
AcDbCircle
 10
0.0
 20
0.0
 30
0.0
 40
12.79999999999444
100
AcDbArc
 50
232.6796891117
 51
235.3203108883
  0
ARC
  5
1CB
330
1F
100
AcDbEntity
  8
0
  6
Continuous
 62
     7
370
    25
100
AcDbCircle
 10
0.0
 20
0.0
 30
0.0
 40
12.79999999999302
100
AcDbArc
 50
256.6796891117
 51
259.3203108883
  0
ARC
  5
1CC
330
1F
100
AcDbEntity
  8
0
  6
Continuous
 62
     7
370
    25
100
AcDbCircle
 10
0.0
 20
0.0
 30
0.0
 40
12.80000000001179
100
AcDbArc
 50
280.6796891117
 51
283.3203108883
  0
ARC
  5
1CD
330
1F
100
AcDbEntity
  8
0
  6
Continuous
 62
     7
370
    25
100
AcDbCircle
 10
0.0
 20
0.0
 30
0.0
 40
12.80000000001685
100
AcDbArc
 50
304.6796891117
 51
307.3203108883
  0
ARC
  5
1CE
330
1F
100
AcDbEntity
  8
0
  6
Continuous
 62
     7
370
    25
100
AcDbCircle
 10
0.0
 20
0.0
 30
0.0
 40
12.79999999997946
100
AcDbArc
 50
328.6796891117
 51
331.3203108883
  0
ARC
  5
1CF
330
1F
100
AcDbEntity
  8
0
  6
Continuous
 62
     7
370
    25
100
AcDbCircle
 10
0.0
 20
0.0
 30
0.0
 40
12.80000000002075
100
AcDbArc
 50
352.6796891117
 51
355.3203108883
  0
ARC
  5
1D0
330
1F
100
AcDbEntity
  8
0
  6
Continuous
 62
     7
370
    25
100
AcDbCircle
 10
0.0
 20
0.0
 30
0.0
 40
12.8000000000134
100
AcDbArc
 50
16.6796891117
 51
19.3203108883
  0
ARC
  5
1D1
330
1F
100
AcDbEntity
  8
0
  6
Continuous
 62
     7
370
    25
100
AcDbCircle
 10
0.0
 20
0.0
 30
0.0
 40
12.79999999998774
100
AcDbArc
 50
40.6796891117
 51
43.3203108883
  0
ARC
  5
1D2
330
1F
100
AcDbEntity
  8
0
  6
Continuous
 62
     7
370
    25
100
AcDbCircle
 10
0.0
 20
0.0
 30
0.0
 40
12.80000000001055
100
AcDbArc
 50
64.6796891117
 51
67.3203108883
  0
ARC
  5
1D3
330
1F
100
AcDbEntity
  8
0
  6
Continuous
 62
     7
370
    25
100
AcDbCircle
 10
0.0
 20
0.0
 30
0.0
 40
12.79999999998611
100
AcDbArc
 50
88.6796891117
 51
91.3203108883
  0
ARC
  5
1D4
330
1F
100
AcDbEntity
  8
0
  6
Continuous
 62
     7
370
    25
100
AcDbCircle
 10
0.0
 20
0.0
 30
0.0
 40
3.85
100
AcDbArc
 50
0.0
 51
180.0
  0
ARC
  5
1D5
330
1F
100
AcDbEntity
  8
0
  6
Continuous
 62
     7
370
    25
100
AcDbCircle
 10
0.0
 20
0.0
 30
0.0
 40
1.500000000000001
100
AcDbArc
 50
265.4382896834
 51
85.4382896834
  0
MTEXT
  5
1D7
330
1F
100
AcDbEntity
  8
0
  6
Continuous
 62
     7
100
AcDbMText
 10
-12.7573295454
 20
-13.8195663917
 30
0.0
 40
4.83362
 41
0.0
 71
     1
 72
     1
  1
SOLIDWORKS Educational Product.
  7
SLDTEXTSTYLE0
 73
     1
 44
1.0
  0
MTEXT
  5
1D8
330
1F
100
AcDbEntity
  8
0
  6
Continuous
 62
     7
100
AcDbMText
 10
-12.7573295454
 20
-21.0699963917
 30
0.0
 40
4.83362
 41
0.0
 71
     1
 72
     1
  1
For Instructional Use Only.
  7
SLDTEXTSTYLE0
 73
     1
 44
1.0
  0
ENDSEC
  0
SECTION
  2
OBJECTS
  0
DICTIONARY
  5
C
330
0
100
AcDbDictionary
281
     1
  3
ACAD_GROUP
350
D
  3
ACAD_LAYOUT
350
1A
  3
ACAD_MLINESTYLE
350
17
  3
ACAD_PLOTSETTINGS
350
19
  3
ACAD_PLOTSTYLENAME
350
E
  3
ACAD_SCALELIST
350
47
  3
DWGPROPS
350
1D9
  0
DICTIONARY
  5
D
102
{ACAD_REACTORS
330
C
102
}
330
C
100
AcDbDictionary
281
     1
  0
DICTIONARY
  5
1A
102
{ACAD_REACTORS
330
C
102
}
330
C
100
AcDbDictionary
281
     1
  3
Layout1
350
1E
  3
Layout2
350
26
  3
Model
350
22
  0
DICTIONARY
  5
17
102
{ACAD_REACTORS
330
C
102
}
330
C
100
AcDbDictionary
281
     1
  3
Standard
350
18
  0
DICTIONARY
  5
19
102
{ACAD_REACTORS
330
C
102
}
330
C
100
AcDbDictionary
281
     1
  0
ACDBDICTIONARYWDFLT
  5
E
102
{ACAD_REACTORS
330
C
102
}
330
C
100
AcDbDictionary
281
     1
  3
Normal
350
F
100
AcDbDictionaryWithDefault
340
F
  0
DICTIONARY
  5
47
102
{ACAD_REACTORS
330
C
102
}
330
C
100
AcDbDictionary
281
     1
  3
A0
350
48
  3
A1
350
49
  3
A2
350
4A
  3
A3
350
4B
  3
A4
350
4C
  3
A5
350
4D
  3
A6
350
4E
  3
A7
350
4F
  3
A8
350
50
  3
A9
350
51
  3
B0
350
52
  3
B1
350
53
  3
B2
350
54
  3
B3
350
55
  3
B4
350
56
  3
B5
350
57
  3
B6
350
58
  0
XRECORD
  5
1D9
102
{ACAD_REACTORS
330
C
102
}
330
C
100
AcDbXrecord
280
     1
  1
DWGPROPS COOKIE
  2

  3

  4

  6

  7

  8
kelly
  9

300
=
301
=
302
=
303
=
304
=
305
=
306
=
307
=
308
=
309
=
 40
0.0
 41
2460234.16650485
 42
2460234.166567164
  1

 90
        0
  0
LAYOUT
  5
1E
102
{ACAD_REACTORS
330
1A
102
}
330
1A
100
AcDbPlotSettings
  1

  2
none_device
  4

  6

 40
0.0
 41
0.0
 42
0.0
 43
0.0
 44
0.0
 45
0.0
 46
0.0
 47
0.0
 48
0.0
 49
0.0
140
0.0
141
0.0
142
1.0
143
1.0
 70
   688
 72
     1
 73
     0
 74
     5
  7

 75
    16
147
1.0
148
0.0
149
0.0
100
AcDbLayout
  1
Layout1
 70
     1
 71
     1
 10
0.0
 20
0.0
 11
420.0
 21
297.0
 12
0.0
 22
0.0
 32
0.0
 14
1.0000000000E+20
 24
1.0000000000E+20
 34
1.0000000000E+20
 15
-1.0000000000E+20
 25
-1.0000000000E+20
 35
-1.0000000000E+20
146
0.0
 13
0.0
 23
0.0
 33
0.0
 16
1.0
 26
0.0
 36
0.0
 17
0.0
 27
1.0
 37
0.0
 76
     0
330
1B
  0
LAYOUT
  5
26
102
{ACAD_REACTORS
330
1A
102
}
330
1A
100
AcDbPlotSettings
  1

  2
none_device
  4

  6

 40
0.0
 41
0.0
 42
0.0
 43
0.0
 44
0.0
 45
0.0
 46
0.0
 47
0.0
 48
0.0
 49
0.0
140
0.0
141
0.0
142
1.0
143
1.0
 70
   688
 72
     1
 73
     0
 74
     5
  7

 75
    16
147
1.0
148
0.0
149
0.0
100
AcDbLayout
  1
Layout2
 70
     1
 71
     2
 10
0.0
 20
0.0
 11
0.0
 21
0.0
 12
0.0
 22
0.0
 32
0.0
 14
0.0
 24
0.0
 34
0.0
 15
0.0
 25
0.0
 35
0.0
146
0.0
 13
0.0
 23
0.0
 33
0.0
 16
1.0
 26
0.0
 36
0.0
 17
0.0
 27
1.0
 37
0.0
 76
     0
330
23
  0
LAYOUT
  5
22
102
{ACAD_REACTORS
330
1A
102
}
330
1A
100
AcDbPlotSettings
  1

  2
none_device
  4
ANSI_A_(11.00_x_8.50_Inches)
  6

 40
6.35
 41
19.05
 42
6.35000508
 43
19.05000254
 44
279.4
 45
215.9
 46
133.34999746
 47
88.89999873
 48
0.0
 49
0.0
140
0.0
141
0.0
142
0.3287109375
143
1.0
 70
  1696
 72
     0
 73
     0
 74
     0
  7

 75
     0
147
0.0179189148
148
-1300.4909072572
149
0.0
100
AcDbLayout
  1
Model
 70
     1
 71
     0
 10
0.0
 20
0.0
 11
420.0
 21
297.0
 12
0.0
 22
0.0
 32
0.0
 14
-12.7573295454
 24
-12.8
 34
0.0
 15
12.7573295454
 25
12.8
 35
0.0
146
0.0
 13
0.0
 23
0.0
 33
0.0
 16
1.0
 26
0.0
 36
0.0
 17
0.0
 27
1.0
 37
0.0
 76
     0
330
1F
331
29
  0
MLINESTYLE
  5
18
102
{ACAD_REACTORS
330
17
102
}
330
17
100
AcDbMlineStyle
  2
Standard
 70
     0
  3

 62
   256
 51
90.0
 52
90.0
 71
     2
 49
0.5
 62
   256
  6
BYLAYER
 49
-0.5
 62
   256
  6
BYLAYER
  0
ACDBPLACEHOLDER
  5
F
102
{ACAD_REACTORS
330
E
102
}
330
E
  0
SCALE
  5
48
102
{ACAD_REACTORS
330
47
102
}
330
47
100
AcDbScale
 70
     0
300
1:1
140
1.0
141
1.0
290
     1
  0
SCALE
  5
49
102
{ACAD_REACTORS
330
47
102
}
330
47
100
AcDbScale
 70
     0
300
1:2
140
1.0
141
2.0
290
     0
  0
SCALE
  5
4A
102
{ACAD_REACTORS
330
47
102
}
330
47
100
AcDbScale
 70
     0
300
1:4
140
1.0
141
4.0
290
     0
  0
SCALE
  5
4B
102
{ACAD_REACTORS
330
47
102
}
330
47
100
AcDbScale
 70
     0
300
1:5
140
1.0
141
5.0
290
     0
  0
SCALE
  5
4C
102
{ACAD_REACTORS
330
47
102
}
330
47
100
AcDbScale
 70
     0
300
1:8
140
1.0
141
8.0
290
     0
  0
SCALE
  5
4D
102
{ACAD_REACTORS
330
47
102
}
330
47
100
AcDbScale
 70
     0
300
1:10
140
1.0
141
10.0
290
     0
  0
SCALE
  5
4E
102
{ACAD_REACTORS
330
47
102
}
330
47
100
AcDbScale
 70
     0
300
1:16
140
1.0
141
16.0
290
     0
  0
SCALE
  5
4F
102
{ACAD_REACTORS
330
47
102
}
330
47
100
AcDbScale
 70
     0
300
1:20
140
1.0
141
20.0
290
     0
  0
SCALE
  5
50
102
{ACAD_REACTORS
330
47
102
}
330
47
100
AcDbScale
 70
     0
300
1:30
140
1.0
141
30.0
290
     0
  0
SCALE
  5
51
102
{ACAD_REACTORS
330
47
102
}
330
47
100
AcDbScale
 70
     0
300
1:40
140
1.0
141
40.0
290
     0
  0
SCALE
  5
52
102
{ACAD_REACTORS
330
47
102
}
330
47
100
AcDbScale
 70
     0
300
1:50
140
1.0
141
50.0
290
     0
  0
SCALE
  5
53
102
{ACAD_REACTORS
330
47
102
}
330
47
100
AcDbScale
 70
     0
300
1:100
140
1.0
141
100.0
290
     0
  0
SCALE
  5
54
102
{ACAD_REACTORS
330
47
102
}
330
47
100
AcDbScale
 70
     0
300
2:1
140
2.0
141
1.0
290
     0
  0
SCALE
  5
55
102
{ACAD_REACTORS
330
47
102
}
330
47
100
AcDbScale
 70
     0
300
4:1
140
4.0
141
1.0
290
     0
  0
SCALE
  5
56
102
{ACAD_REACTORS
330
47
102
}
330
47
100
AcDbScale
 70
     0
300
8:1
140
8.0
141
1.0
290
     0
  0
SCALE
  5
57
102
{ACAD_REACTORS
330
47
102
}
330
47
100
AcDbScale
 70
     0
300
10:1
140
10.0
141
1.0
290
     0
  0
SCALE
  5
58
102
{ACAD_REACTORS
330
47
102
}
330
47
100
AcDbScale
 70
     0
300
100:1
140
100.0
141
1.0
290
     0
  0
ENDSEC
  0
EOF
